<svg width="17" height="17" viewBox="0 0 17 17" fill="none" xmlns="http://www.w3.org/2000/svg">
<g clip-path="url(#clip0_1803_3836)">
<path d="M16.2913 11.334C16.1035 11.334 15.9233 11.4086 15.7905 11.5414C15.6576 11.6743 15.583 11.8545 15.583 12.0423V13.459C15.583 14.0226 15.3591 14.5631 14.9606 14.9616C14.5621 15.3601 14.0216 15.584 13.458 15.584H12.0413C11.8535 15.584 11.6733 15.6586 11.5405 15.7914C11.4076 15.9243 11.333 16.1044 11.333 16.2923C11.333 16.4802 11.4076 16.6603 11.5405 16.7932C11.6733 16.926 11.8535 17.0006 12.0413 17.0006H13.458C14.397 16.9995 15.2971 16.626 15.9611 15.9621C16.625 15.2981 16.9985 14.3979 16.9997 13.459V12.0423C16.9997 11.8545 16.925 11.6743 16.7922 11.5414C16.6594 11.4086 16.4792 11.334 16.2913 11.334Z" fill="#F55139"/>
<path d="M0.708333 5.66667C0.896195 5.66667 1.07636 5.59204 1.2092 5.4592C1.34204 5.32636 1.41667 5.14619 1.41667 4.95833V3.54167C1.41667 2.97808 1.64055 2.43758 2.03906 2.03906C2.43758 1.64055 2.97808 1.41667 3.54167 1.41667H4.95833C5.14619 1.41667 5.32636 1.34204 5.4592 1.2092C5.59204 1.07636 5.66667 0.896195 5.66667 0.708333C5.66667 0.520472 5.59204 0.340304 5.4592 0.207466C5.32636 0.0746278 5.14619 0 4.95833 0L3.54167 0C2.6027 0.00112473 1.70252 0.374625 1.03857 1.03857C0.374625 1.70252 0.00112473 2.6027 0 3.54167L0 4.95833C0 5.14619 0.0746278 5.32636 0.207466 5.4592C0.340304 5.59204 0.520472 5.66667 0.708333 5.66667Z" fill="#F55139"/>
<path d="M4.95833 15.584H3.54167C2.97808 15.584 2.43758 15.3601 2.03906 14.9616C1.64055 14.5631 1.41667 14.0226 1.41667 13.459V12.0423C1.41667 11.8545 1.34204 11.6743 1.2092 11.5414C1.07636 11.4086 0.896195 11.334 0.708333 11.334C0.520472 11.334 0.340304 11.4086 0.207466 11.5414C0.0746278 11.6743 0 11.8545 0 12.0423L0 13.459C0.00112473 14.3979 0.374625 15.2981 1.03857 15.9621C1.70252 16.626 2.6027 16.9995 3.54167 17.0006H4.95833C5.14619 17.0006 5.32636 16.926 5.4592 16.7932C5.59204 16.6603 5.66667 16.4802 5.66667 16.2923C5.66667 16.1044 5.59204 15.9243 5.4592 15.7914C5.32636 15.6586 5.14619 15.584 4.95833 15.584Z" fill="#F55139"/>
<path d="M13.458 0H12.0413C11.8535 0 11.6733 0.0746278 11.5405 0.207466C11.4076 0.340304 11.333 0.520472 11.333 0.708333C11.333 0.896195 11.4076 1.07636 11.5405 1.2092C11.6733 1.34204 11.8535 1.41667 12.0413 1.41667H13.458C14.0216 1.41667 14.5621 1.64055 14.9606 2.03906C15.3591 2.43758 15.583 2.97808 15.583 3.54167V4.95833C15.583 5.14619 15.6576 5.32636 15.7905 5.4592C15.9233 5.59204 16.1035 5.66667 16.2913 5.66667C16.4792 5.66667 16.6594 5.59204 16.7922 5.4592C16.925 5.32636 16.9997 5.14619 16.9997 4.95833V3.54167C16.9985 2.6027 16.625 1.70252 15.9611 1.03857C15.2971 0.374625 14.397 0.00112473 13.458 0V0Z" fill="#F55139"/>
<path d="M8.50033 7.79167C9.06071 7.79167 9.6085 7.6255 10.0744 7.31417C10.5404 7.00283 10.9035 6.56033 11.118 6.0426C11.3324 5.52488 11.3885 4.95519 11.2792 4.40558C11.1699 3.85597 10.9 3.35111 10.5038 2.95487C10.1075 2.55862 9.60269 2.28877 9.05308 2.17944C8.50347 2.07012 7.93378 2.12623 7.41606 2.34068C6.89833 2.55512 6.45583 2.91828 6.1445 3.38422C5.83316 3.85016 5.66699 4.39795 5.66699 4.95833C5.66699 5.70978 5.9655 6.43045 6.49686 6.9618C7.02821 7.49316 7.74888 7.79167 8.50033 7.79167ZM8.50033 3.54167C8.78052 3.54167 9.05441 3.62475 9.28738 3.78042C9.52035 3.93608 9.70193 4.15734 9.80915 4.4162C9.91638 4.67506 9.94443 4.95991 9.88977 5.23471C9.83511 5.50952 9.70018 5.76194 9.50206 5.96007C9.30394 6.15819 9.05151 6.29312 8.7767 6.34778C8.5019 6.40244 8.21705 6.37439 7.95819 6.26716C7.69933 6.15994 7.47808 5.97836 7.32241 5.74539C7.16674 5.51242 7.08366 5.23852 7.08366 4.95833C7.08366 4.58261 7.23291 4.22228 7.49859 3.9566C7.76427 3.69092 8.1246 3.54167 8.50033 3.54167Z" fill="#F55139"/>
<path d="M12.7503 14.1673C12.9382 14.1673 13.1184 14.0927 13.2512 13.9599C13.384 13.827 13.4587 13.6468 13.4587 13.459C13.4575 12.3322 13.0094 11.2518 12.2126 10.455C11.4158 9.65824 10.3355 9.21011 9.20866 9.20898H7.79199C6.66517 9.21011 5.58482 9.65824 4.78803 10.455C3.99125 11.2518 3.54312 12.3322 3.54199 13.459C3.54199 13.6468 3.61662 13.827 3.74946 13.9599C3.8823 14.0927 4.06246 14.1673 4.25033 14.1673C4.43819 14.1673 4.61835 14.0927 4.75119 13.9599C4.88403 13.827 4.95866 13.6468 4.95866 13.459C4.95866 12.7075 5.25717 11.9869 5.78852 11.4555C6.31988 10.9242 7.04055 10.6257 7.79199 10.6257H9.20866C9.96011 10.6257 10.6808 10.9242 11.2121 11.4555C11.7435 11.9869 12.042 12.7075 12.042 13.459C12.042 13.6468 12.1166 13.827 12.2495 13.9599C12.3823 14.0927 12.5625 14.1673 12.7503 14.1673Z" fill="#F55139"/>
</g>
<defs>
<clipPath id="clip0_1803_3836">
<rect width="17" height="17" fill="white"/>
</clipPath>
</defs>
</svg>
