<svg width="30" height="30" viewBox="0 0 30 30" fill="none" xmlns="http://www.w3.org/2000/svg">
<g clip-path="url(#clip0_776_1868)">
<path fill-rule="evenodd" clip-rule="evenodd" d="M15.0003 0.625C11.4393 0.626848 7.99513 1.88807 5.28356 4.18315C2.57198 6.47823 0.769849 9.65751 0.1994 13.1525C-0.371048 16.6475 0.327378 20.2303 2.16981 23.2602C4.01224 26.2902 6.87852 28.5697 10.2561 29.6912C11.0013 29.8295 11.282 29.3677 11.282 28.975C11.282 28.5823 11.2671 27.4438 11.2621 26.199C7.08921 27.1005 6.20745 24.4381 6.20745 24.4381C5.52688 22.7093 4.54327 22.2549 4.54327 22.2549C3.18211 21.3312 4.64511 21.3485 4.64511 21.3485C6.15281 21.4547 6.94516 22.8871 6.94516 22.8871C8.28148 25.1667 10.4548 24.5073 11.3093 24.122C11.4434 23.1563 11.8334 22.4994 12.2631 22.1264C8.92976 21.751 5.42752 20.4717 5.42752 14.7568C5.40686 13.2746 5.96 11.8413 6.97248 10.7534C6.81848 10.378 6.30432 8.86154 7.11902 6.80179C7.11902 6.80179 8.37835 6.40169 11.2447 8.33055C13.7033 7.66203 16.2973 7.66203 18.7559 8.33055C21.6198 6.40169 22.8766 6.80179 22.8766 6.80179C23.6938 8.8566 23.1796 10.373 23.0256 10.7534C24.0413 11.8415 24.5956 13.2773 24.5731 14.7617C24.5731 20.489 21.0634 21.751 17.7251 22.119C18.2616 22.5833 18.741 23.4897 18.741 24.8827C18.741 26.8782 18.7236 28.4835 18.7236 28.975C18.7236 29.3726 18.9943 29.8369 19.7544 29.6912C23.1324 28.5696 25.999 26.2896 27.8414 23.2592C29.6838 20.2287 30.3818 16.6454 29.8107 13.1501C29.2396 9.65475 27.4366 6.47544 24.7241 4.18076C22.0117 1.88607 18.5667 0.625676 15.0053 0.625H15.0003Z" fill="#B0B0B0"/>
<path d="M5.68045 22.04C5.64816 22.1141 5.52894 22.1363 5.43207 22.0845C5.3352 22.0326 5.26317 21.9363 5.29795 21.8597C5.33272 21.7832 5.44946 21.7634 5.54633 21.8153C5.6432 21.8671 5.71771 21.9659 5.68045 22.04Z" fill="#B0B0B0"/>
<path d="M6.28904 22.7142C6.2376 22.74 6.17875 22.7472 6.12256 22.7346C6.06638 22.722 6.01635 22.6903 5.98104 22.6451C5.88417 22.5414 5.86429 22.3981 5.9388 22.3339C6.01332 22.2697 6.14746 22.2993 6.24433 22.4031C6.3412 22.5068 6.36355 22.65 6.28904 22.7142Z" fill="#B0B0B0"/>
<path d="M6.88034 23.5712C6.78843 23.6354 6.63194 23.5712 6.54501 23.4428C6.52097 23.4198 6.50185 23.3921 6.48879 23.3616C6.47573 23.331 6.46899 23.2982 6.46899 23.265C6.46899 23.2318 6.47573 23.1989 6.48879 23.1684C6.50185 23.1378 6.52097 23.1102 6.54501 23.0872C6.63691 23.0254 6.7934 23.0872 6.88034 23.2131C6.96727 23.3391 6.96976 23.507 6.88034 23.5712Z" fill="#B0B0B0"/>
<path d="M7.68252 24.4011C7.60056 24.4924 7.43414 24.4677 7.29753 24.3443C7.16092 24.2208 7.12862 24.0528 7.21058 23.9639C7.29255 23.875 7.45897 23.8997 7.60055 24.0207C7.74213 24.1417 7.76946 24.3121 7.68252 24.4011Z" fill="#B0B0B0"/>
<path d="M8.80772 24.8851C8.77046 25.0012 8.60155 25.0531 8.43265 25.0037C8.26375 24.9543 8.15198 24.816 8.18427 24.6974C8.21656 24.5789 8.38795 24.5245 8.55933 24.5789C8.73072 24.6332 8.84001 24.7641 8.80772 24.8851Z" fill="#B0B0B0"/>
<path d="M10.0349 24.9691C10.0349 25.0901 9.89582 25.1938 9.71699 25.1963C9.53815 25.1988 9.3916 25.1 9.3916 24.979C9.3916 24.858 9.53069 24.7542 9.70953 24.7518C9.88837 24.7493 10.0349 24.8456 10.0349 24.9691Z" fill="#B0B0B0"/>
<path d="M11.1775 24.7789C11.1998 24.8999 11.0757 25.0259 10.8968 25.0555C10.718 25.0852 10.5615 25.0135 10.5391 24.895C10.5168 24.7765 10.6459 24.648 10.8198 24.6159C10.9937 24.5838 11.1551 24.6579 11.1775 24.7789Z" fill="#B0B0B0"/>
</g>
<defs>
<clipPath id="clip0_776_1868">
<rect width="30" height="30" fill="white"/>
</clipPath>
</defs>
</svg>
