<svg width="18" height="18" viewBox="0 0 18 18" fill="none" xmlns="http://www.w3.org/2000/svg">
<path d="M1 17H0.25C0.25 17.4142 0.585786 17.75 1 17.75L1 17ZM8 15L8.53033 15.5303L8 15ZM14.4142 1.41421L14.9445 0.883882L14.4142 1.41421ZM16.5858 3.58579L16.0555 4.11612L16.5858 3.58579ZM6.58579 16.4142L7.11612 16.9445L6.58579 16.4142ZM1.58579 11.4142L2.11612 11.9445L1.58579 11.4142ZM17.1161 3.05546L14.9445 0.883882L13.8839 1.94454L16.0555 4.11612L17.1161 3.05546ZM7.11612 16.9445L8.53033 15.5303L7.46967 14.4697L6.05546 15.8839L7.11612 16.9445ZM2.46967 9.46967L1.05546 10.8839L2.11612 11.9445L3.53033 10.5303L2.46967 9.46967ZM11.0555 0.883883L9.46967 2.46967L10.5303 3.53033L12.1161 1.94454L11.0555 0.883883ZM9.46967 2.46967L2.46967 9.46967L3.53033 10.5303L10.5303 3.53033L9.46967 2.46967ZM8.53033 15.5303L15.5303 8.53033L14.4697 7.46967L7.46967 14.4697L8.53033 15.5303ZM15.5303 8.53033L17.1161 6.94454L16.0555 5.88388L14.4697 7.46967L15.5303 8.53033ZM5.17157 16.25H3.5V17.75H5.17157V16.25ZM3.5 16.25H1V17.75H3.5V16.25ZM0.25 12.8284V14.5H1.75V12.8284H0.25ZM0.25 14.5V17H1.75V14.5H0.25ZM4.03033 16.4697L1.53033 13.9697L0.46967 15.0303L2.96967 17.5303L4.03033 16.4697ZM8.53033 14.4697L3.53033 9.46967L2.46967 10.5303L7.46967 15.5303L8.53033 14.4697ZM15.5303 7.46967L10.5303 2.46967L9.46967 3.53033L14.4697 8.53033L15.5303 7.46967ZM14.9445 0.883882C13.8706 -0.190061 12.1294 -0.190058 11.0555 0.883883L12.1161 1.94454C12.6043 1.45639 13.3957 1.45639 13.8839 1.94454L14.9445 0.883882ZM16.0555 4.11612C16.5436 4.60427 16.5436 5.39573 16.0555 5.88388L17.1161 6.94454C18.1901 5.8706 18.1901 4.1294 17.1161 3.05546L16.0555 4.11612ZM6.05546 15.8839C5.82104 16.1183 5.50309 16.25 5.17157 16.25V17.75C5.90092 17.75 6.60039 17.4603 7.11612 16.9445L6.05546 15.8839ZM1.05546 10.8839C0.53973 11.3996 0.25 12.0991 0.25 12.8284H1.75C1.75 12.4969 1.8817 12.179 2.11612 11.9445L1.05546 10.8839Z" fill="#F55139"/>
</svg>
