<svg width="30" height="30" viewBox="0 0 30 30" fill="none" xmlns="http://www.w3.org/2000/svg">
<path d="M29.7012 9.00006C29.7012 9.00006 29.4082 6.9317 28.5059 6.0235C27.3633 4.82819 26.0859 4.82233 25.5 4.75201C21.3047 4.44733 15.0059 4.44733 15.0059 4.44733H14.9941C14.9941 4.44733 8.69531 4.44733 4.5 4.75201C3.91406 4.82233 2.63672 4.82819 1.49414 6.0235C0.591797 6.9317 0.304688 9.00006 0.304688 9.00006C0.304688 9.00006 0 11.4317 0 13.8575V16.1309C0 18.5567 0.298828 20.9883 0.298828 20.9883C0.298828 20.9883 0.591797 23.0567 1.48828 23.9649C2.63086 25.1602 4.13086 25.1192 4.79883 25.2481C7.20117 25.4766 15 25.5469 15 25.5469C15 25.5469 21.3047 25.5352 25.5 25.2364C26.0859 25.1661 27.3633 25.1602 28.5059 23.9649C29.4082 23.0567 29.7012 20.9883 29.7012 20.9883C29.7012 20.9883 30 18.5626 30 16.1309V13.8575C30 11.4317 29.7012 9.00006 29.7012 9.00006ZM11.9004 18.8907V10.459L20.0039 14.6895L11.9004 18.8907Z" fill="#B0B0B0"/>
</svg>
