<svg width="25" height="25" viewBox="0 0 25 25" fill="none" xmlns="http://www.w3.org/2000/svg">
<g clip-path="url(#clip0_1803_3823)" filter="url(#filter0_d_1803_3823)">
<path d="M10.3502 17H6.83333C6.08189 17 5.36122 16.7015 4.82986 16.1701C4.29851 15.6388 4 14.9181 4 14.1667V10.625C4 9.87355 4.29851 9.15288 4.82986 8.62153C5.36122 8.09018 6.08189 7.79167 6.83333 7.79167H13.107C13.4904 7.79185 13.8672 7.89098 14.201 8.07948C14.5348 8.26798 14.8143 8.53945 15.0125 8.86762L17.2912 6.36367C17.4796 6.1564 17.7071 5.98831 17.9606 5.86901C18.2141 5.74971 18.4886 5.68153 18.7684 5.66837C19.0483 5.65521 19.328 5.69734 19.5915 5.79233C19.8551 5.88733 20.0973 6.03333 20.3044 6.222C20.7176 6.60162 20.9653 7.12831 20.994 7.68869C21.0228 8.24908 20.8303 8.79834 20.4581 9.21825L15.6415 14.6278C14.9764 15.3737 14.1612 15.9706 13.2494 16.3794C12.3375 16.7882 11.3495 16.9997 10.3502 17ZM6.83333 9.20833C6.45761 9.20833 6.09728 9.35759 5.8316 9.62327C5.56592 9.88894 5.41667 10.2493 5.41667 10.625V14.1667C5.41667 14.5424 5.56592 14.9027 5.8316 15.1684C6.09728 15.4341 6.45761 15.5833 6.83333 15.5833H10.3502C11.1492 15.583 11.939 15.4139 12.668 15.087C13.397 14.76 14.0487 14.2828 14.5804 13.6864L19.4006 8.27617C19.5257 8.1352 19.5905 7.95072 19.581 7.76246C19.5714 7.5742 19.4883 7.39722 19.3496 7.26962C19.2085 7.14278 19.0235 7.07595 18.8339 7.08333C18.7399 7.08731 18.6477 7.10996 18.5626 7.14998C18.4774 7.18999 18.4011 7.24655 18.3381 7.31638L15.203 10.7667C15.0654 11.1476 14.8269 11.484 14.513 11.74C14.1991 11.996 13.8216 12.1619 13.4208 12.2202L9.76512 12.7429C9.57914 12.7696 9.39018 12.7213 9.23981 12.6086C9.08943 12.496 8.98997 12.3282 8.96329 12.1422C8.93662 11.9563 8.98491 11.7673 9.09756 11.6169C9.21021 11.4666 9.37798 11.3671 9.56396 11.3404L13.2204 10.8184C13.4233 10.79 13.608 10.6856 13.737 10.5264C13.8659 10.3672 13.9297 10.1649 13.9153 9.96045C13.9009 9.75602 13.8095 9.56467 13.6594 9.42506C13.5094 9.28545 13.312 9.20799 13.107 9.20833H6.83333ZM11.7917 6.42742C11.4706 6.42828 11.1589 6.3193 10.9084 6.11858C9.69571 5.14533 8.25 3.68333 8.25 2.26667C8.23261 1.68468 8.44641 1.11948 8.84463 0.694708C9.24286 0.269934 9.7931 0.0201536 10.375 0C10.9044 0.00206183 11.4123 0.209537 11.7917 0.578708C12.1711 0.209537 12.679 0.00206183 13.2083 0C13.7902 0.0201536 14.3405 0.269934 14.7387 0.694708C15.1369 1.11948 15.3507 1.68468 15.3333 2.26667C15.3333 3.68333 13.8876 5.14533 12.6742 6.11929C12.4238 6.3196 12.1124 6.42832 11.7917 6.42742V6.42742ZM10.375 1.41667C10.1691 1.43732 9.97957 1.53795 9.84711 1.6969C9.71465 1.85585 9.64986 2.06044 9.66667 2.26667C9.66667 2.90417 10.482 3.95958 11.7959 5.01429C13.1014 3.95958 13.9167 2.90417 13.9167 2.26667C13.9335 2.06044 13.8687 1.85585 13.7362 1.6969C13.6038 1.53795 13.4142 1.43732 13.2083 1.41667C13.0025 1.43732 12.8129 1.53795 12.6804 1.6969C12.548 1.85585 12.4832 2.06044 12.5 2.26667C12.5 2.45453 12.4254 2.6347 12.2925 2.76753C12.1597 2.90037 11.9795 2.975 11.7917 2.975C11.6038 2.975 11.4236 2.90037 11.2908 2.76753C11.158 2.6347 11.0833 2.45453 11.0833 2.26667C11.1001 2.06044 11.0353 1.85585 10.9029 1.6969C10.7704 1.53795 10.5809 1.43732 10.375 1.41667V1.41667Z" fill="#F55139"/>
</g>
<defs>
<filter id="filter0_d_1803_3823" x="0" y="0" width="25" height="25" filterUnits="userSpaceOnUse" color-interpolation-filters="sRGB">
<feFlood flood-opacity="0" result="BackgroundImageFix"/>
<feColorMatrix in="SourceAlpha" type="matrix" values="0 0 0 0 0 0 0 0 0 0 0 0 0 0 0 0 0 0 127 0" result="hardAlpha"/>
<feOffset dy="4"/>
<feGaussianBlur stdDeviation="2"/>
<feComposite in2="hardAlpha" operator="out"/>
<feColorMatrix type="matrix" values="0 0 0 0 0 0 0 0 0 0 0 0 0 0 0 0 0 0 0.25 0"/>
<feBlend mode="normal" in2="BackgroundImageFix" result="effect1_dropShadow_1803_3823"/>
<feBlend mode="normal" in="SourceGraphic" in2="effect1_dropShadow_1803_3823" result="shape"/>
</filter>
<clipPath id="clip0_1803_3823">
<rect width="17" height="17" fill="white" transform="translate(4)"/>
</clipPath>
</defs>
</svg>
