<svg width="17" height="17" viewBox="0 0 17 17" fill="none" xmlns="http://www.w3.org/2000/svg">
<g clip-path="url(#clip0_1804_3717)">
<path d="M12.7501 13.458C12.8902 13.458 13.0271 13.4164 13.1435 13.3386C13.26 13.2608 13.3508 13.1501 13.4044 13.0207C13.458 12.8913 13.472 12.7489 13.4447 12.6115C13.4173 12.4742 13.3499 12.348 13.2509 12.2489L8.87904 7.87777C8.21488 7.21381 7.31421 6.84082 6.37509 6.84082C5.43596 6.84082 4.53529 7.21381 3.87113 7.87777L2.33263 9.41556C2.2036 9.54916 2.1322 9.72808 2.13382 9.91381C2.13543 10.0995 2.20992 10.2772 2.34126 10.4085C2.47259 10.5398 2.65024 10.6143 2.83597 10.616C3.02169 10.6176 3.20062 10.5462 3.33421 10.4171L4.87271 8.87936C5.27732 8.4927 5.81543 8.27693 6.37509 8.27693C6.93474 8.27693 7.47285 8.4927 7.87746 8.87936L12.2493 13.2505C12.3821 13.3833 12.5622 13.458 12.7501 13.458Z" fill="#F55139"/>
<path d="M11.3337 7.43685C11.824 7.43685 12.3033 7.29145 12.711 7.01904C13.1187 6.74662 13.4365 6.35943 13.6241 5.90642C13.8118 5.45341 13.8608 4.95493 13.7652 4.47402C13.6695 3.99311 13.4334 3.55137 13.0867 3.20465C12.74 2.85793 12.2982 2.62181 11.8173 2.52615C11.3364 2.43049 10.8379 2.47959 10.3849 2.66723C9.93191 2.85487 9.54472 3.17264 9.27231 3.58033C8.99989 3.98803 8.85449 4.46735 8.85449 4.95768C8.85449 5.6152 9.11569 6.24579 9.58062 6.71072C10.0456 7.17565 10.6761 7.43685 11.3337 7.43685ZM11.3337 3.89518C11.5438 3.89518 11.7492 3.9575 11.924 4.07425C12.0987 4.191 12.2349 4.35694 12.3153 4.55108C12.3957 4.74523 12.4167 4.95886 12.3757 5.16497C12.3347 5.37107 12.2336 5.56039 12.085 5.70898C11.9364 5.85758 11.747 5.95877 11.5409 5.99977C11.3348 6.04077 11.1212 6.01972 10.9271 5.93931C10.7329 5.85889 10.567 5.7227 10.4502 5.54798C10.3335 5.37325 10.2712 5.16783 10.2712 4.95768C10.2712 4.67589 10.3831 4.40564 10.5824 4.20638C10.7816 4.00713 11.0519 3.89518 11.3337 3.89518Z" fill="#F55139"/>
<path d="M16.2913 11.334C16.1035 11.334 15.9233 11.4086 15.7905 11.5414C15.6576 11.6743 15.583 11.8545 15.583 12.0423V13.459C15.583 14.0226 15.3591 14.5631 14.9606 14.9616C14.5621 15.3601 14.0216 15.584 13.458 15.584H12.0413C11.8535 15.584 11.6733 15.6586 11.5405 15.7914C11.4076 15.9243 11.333 16.1044 11.333 16.2923C11.333 16.4802 11.4076 16.6603 11.5405 16.7932C11.6733 16.926 11.8535 17.0006 12.0413 17.0006H13.458C14.397 16.9995 15.2971 16.626 15.9611 15.9621C16.625 15.2981 16.9985 14.3979 16.9997 13.459V12.0423C16.9997 11.8545 16.925 11.6743 16.7922 11.5414C16.6594 11.4086 16.4792 11.334 16.2913 11.334Z" fill="#F55139"/>
<path d="M0.708333 5.66667C0.896195 5.66667 1.07636 5.59204 1.2092 5.4592C1.34204 5.32636 1.41667 5.14619 1.41667 4.95833V3.54167C1.41667 2.97808 1.64055 2.43758 2.03906 2.03906C2.43758 1.64055 2.97808 1.41667 3.54167 1.41667H4.95833C5.14619 1.41667 5.32636 1.34204 5.4592 1.2092C5.59204 1.07636 5.66667 0.896195 5.66667 0.708333C5.66667 0.520472 5.59204 0.340304 5.4592 0.207466C5.32636 0.0746278 5.14619 0 4.95833 0L3.54167 0C2.6027 0.00112473 1.70252 0.374625 1.03857 1.03857C0.374625 1.70252 0.00112473 2.6027 0 3.54167L0 4.95833C0 5.14619 0.0746278 5.32636 0.207466 5.4592C0.340304 5.59204 0.520472 5.66667 0.708333 5.66667Z" fill="#F55139"/>
<path d="M4.95833 15.584H3.54167C2.97808 15.584 2.43758 15.3601 2.03906 14.9616C1.64055 14.5631 1.41667 14.0226 1.41667 13.459V12.0423C1.41667 11.8545 1.34204 11.6743 1.2092 11.5414C1.07636 11.4086 0.896195 11.334 0.708333 11.334C0.520472 11.334 0.340304 11.4086 0.207466 11.5414C0.0746278 11.6743 0 11.8545 0 12.0423L0 13.459C0.00112473 14.3979 0.374625 15.2981 1.03857 15.9621C1.70252 16.626 2.6027 16.9995 3.54167 17.0006H4.95833C5.14619 17.0006 5.32636 16.926 5.4592 16.7932C5.59204 16.6603 5.66667 16.4802 5.66667 16.2923C5.66667 16.1044 5.59204 15.9243 5.4592 15.7914C5.32636 15.6586 5.14619 15.584 4.95833 15.584Z" fill="#F55139"/>
<path d="M13.458 0H12.0413C11.8535 0 11.6733 0.0746278 11.5405 0.207466C11.4076 0.340304 11.333 0.520472 11.333 0.708333C11.333 0.896195 11.4076 1.07636 11.5405 1.2092C11.6733 1.34204 11.8535 1.41667 12.0413 1.41667H13.458C14.0216 1.41667 14.5621 1.64055 14.9606 2.03906C15.3591 2.43758 15.583 2.97808 15.583 3.54167V4.95833C15.583 5.14619 15.6576 5.32636 15.7905 5.4592C15.9233 5.59204 16.1035 5.66667 16.2913 5.66667C16.4792 5.66667 16.6594 5.59204 16.7922 5.4592C16.925 5.32636 16.9997 5.14619 16.9997 4.95833V3.54167C16.9985 2.6027 16.625 1.70252 15.9611 1.03857C15.2971 0.374625 14.397 0.00112473 13.458 0V0Z" fill="#F55139"/>
</g>
<defs>
<clipPath id="clip0_1804_3717">
<rect width="17" height="17" fill="white"/>
</clipPath>
</defs>
</svg>
