<svg width="19" height="19" viewBox="0 0 19 19" fill="none" xmlns="http://www.w3.org/2000/svg">
<path d="M4.67345 16.9063L4.50722 15.9203L4.67345 16.9063ZM16.9375 9.5C16.9375 13.6491 13.6007 17 9.5 17V19C14.7191 19 18.9375 14.7397 18.9375 9.5H16.9375ZM2.0625 9.5C2.0625 5.35089 5.39933 2 9.5 2V0C4.28087 0 0.0625 4.26027 0.0625 9.5H2.0625ZM9.5 2C13.6007 2 16.9375 5.35089 16.9375 9.5H18.9375C18.9375 4.26027 14.7191 0 9.5 0V2ZM9.5 17C8.93392 17 8.25128 16.7841 7.43318 16.4917C7.054 16.3561 6.63598 16.2017 6.2489 16.0858C5.86748 15.9716 5.42941 15.8667 5 15.8667V17.8667C5.13308 17.8667 5.347 17.9034 5.67508 18.0017C5.99752 18.0983 6.34653 18.2272 6.75996 18.375C7.52708 18.6492 8.53195 19 9.5 19V17ZM5 15.8667C4.84132 15.8667 4.64982 15.8962 4.50722 15.9203L4.83968 17.8924C4.90632 17.8812 4.95637 17.8738 4.99139 17.8695C5.00866 17.8674 5.01873 17.8665 5.02285 17.8661C5.02836 17.8657 5.01918 17.8667 5 17.8667V15.8667ZM2.625 13.4667C2.625 12.7836 2.46025 11.9362 2.32549 11.2407C2.17578 10.468 2.0625 9.87633 2.0625 9.5H0.0625C0.0625 10.1171 0.230468 10.9422 0.362005 11.6211C0.508491 12.3772 0.624997 13.0164 0.624997 13.4667H2.625ZM4.50722 15.9203C3.97494 16.01 3.55899 15.8187 3.22457 15.3991C2.86384 14.9464 2.625 14.2389 2.625 13.4667H0.624997C0.624997 14.6056 0.968114 15.7767 1.66047 16.6455C2.37915 17.5474 3.48741 18.1204 4.83968 17.8924L4.50722 15.9203Z" fill="#FF0000"/>
</svg>
