<svg width="20" height="18" viewBox="0 0 20 18" fill="none" xmlns="http://www.w3.org/2000/svg">
  <path fill-rule="evenodd" clip-rule="evenodd"
    d="M14.48 7.96795L15.6584 6.90741L15.6584 6.9074L15.6585 6.90732C15.8328 6.75048 15.9199 6.67204 15.985 6.60098C16.6854 5.83646 16.6854 4.66344 15.985 3.89892C15.9199 3.82786 15.8328 3.74942 15.6585 3.59257L15.6584 3.59252L15.6584 3.59249L15.6584 3.59247C15.5141 3.46263 15.442 3.3977 15.3748 3.34679C14.6604 2.8053 13.673 2.8053 12.9586 3.34679C12.8914 3.3977 12.8193 3.46263 12.675 3.59249L11.1057 5.00487C11.9156 6.28964 13.0848 7.32357 14.48 7.96795ZM9.6017 6.35843L4.28461 11.1438L4.2846 11.1438C3.81284 11.5684 3.57696 11.7807 3.4196 12.0503C3.26225 12.3199 3.19341 12.6297 3.05572 13.2493L2.66306 15.0162C2.58934 15.348 2.55248 15.5139 2.64526 15.6105C2.73804 15.7071 2.90527 15.677 3.23973 15.6168L5.5459 15.2017L5.54592 15.2017C6.10266 15.1015 6.38103 15.0514 6.63172 14.9286C6.88242 14.8058 7.09266 14.6166 7.51314 14.2381L12.8914 9.39771C11.5735 8.64678 10.4491 7.60477 9.6017 6.35843Z"
    fill="#ffffff" />
</svg>