<svg width="24" height="24" viewBox="0 0 24 24" fill="none" xmlns="http://www.w3.org/2000/svg">
<circle cx="12" cy="12" r="12" fill="#E8E8E8"/>
<circle cx="11.75" cy="8" r="4.375" fill="#505050"/>
<path d="M21.7119 10L17.9996 13.7123" stroke="#F55139" stroke-width="2" stroke-linecap="round"/>
<path d="M18 10L21.7123 13.7123" stroke="#F55139" stroke-width="2" stroke-linecap="round"/>
<path d="M17.9994 18.8347C18.4033 18.7433 18.6456 18.3233 18.4665 17.9499C17.9837 16.9427 17.1902 16.0577 16.1617 15.3907C14.896 14.5699 13.3453 14.125 11.75 14.125C10.1547 14.125 8.60398 14.5699 7.33835 15.3907C6.30983 16.0577 5.51629 16.9427 5.03347 17.9499C4.85443 18.3233 5.09671 18.7432 5.50063 18.8347C9.61478 19.7664 13.8852 19.7664 17.9994 18.8347Z" fill="#505050"/>
</svg>
