<svg width="16" height="16" viewBox="0 0 16 16" fill="none" xmlns="http://www.w3.org/2000/svg">
<path d="M8.00144 0C7.62333 0 7.2607 0.150204 6.99334 0.417568C6.72597 0.684932 6.57577 1.04756 6.57577 1.42567C6.57577 1.80378 6.72597 2.1664 6.99334 2.43377C7.2607 2.70113 7.62333 2.85133 8.00144 2.85133C8.37955 2.85133 8.74217 2.70113 9.00954 2.43377C9.2769 2.1664 9.4271 1.80378 9.4271 1.42567C9.4271 1.04756 9.2769 0.684932 9.00954 0.417568C8.74217 0.150204 8.37955 0 8.00144 0V0ZM13.6948 3.28733C13.3167 3.28733 12.954 3.43754 12.6867 3.7049C12.4193 3.97227 12.2691 4.33489 12.2691 4.713C12.2691 5.09111 12.4193 5.45373 12.6867 5.7211C12.954 5.98846 13.3167 6.13867 13.6948 6.13867C14.0729 6.13867 14.4355 5.98846 14.7029 5.7211C14.9702 5.45373 15.1204 5.09111 15.1204 4.713C15.1204 4.33489 14.9702 3.97227 14.7029 3.7049C14.4355 3.43754 14.0729 3.28733 13.6948 3.28733ZM13.6948 9.862C13.3167 9.862 12.954 10.0122 12.6867 10.2796C12.4193 10.5469 12.2691 10.9096 12.2691 11.2877C12.2691 11.6658 12.4193 12.0284 12.6867 12.2958C12.954 12.5631 13.3167 12.7133 13.6948 12.7133C14.0729 12.7133 14.4355 12.5631 14.7029 12.2958C14.9702 12.0284 15.1204 11.6658 15.1204 11.2877C15.1204 10.9096 14.9702 10.5469 14.7029 10.2796C14.4355 10.0122 14.0729 9.862 13.6948 9.862ZM8.00144 13.1493C7.62341 13.1493 7.26088 13.2995 6.99357 13.5668C6.72627 13.8341 6.5761 14.1966 6.5761 14.5747C6.5761 14.9527 6.72627 15.3152 6.99357 15.5825C7.26088 15.8498 7.62341 16 8.00144 16C8.37946 16 8.742 15.8498 9.0093 15.5825C9.2766 15.3152 9.42677 14.9527 9.42677 14.5747C9.42677 14.1966 9.2766 13.8341 9.0093 13.5668C8.742 13.2995 8.37946 13.1493 8.00144 13.1493ZM2.30677 9.86267C2.11959 9.86267 1.93425 9.89953 1.76132 9.97116C1.58839 10.0428 1.43126 10.1478 1.29891 10.2801C1.16655 10.4125 1.06156 10.5696 0.989934 10.7425C0.918304 10.9155 0.881437 11.1008 0.881437 11.288C0.881437 11.4752 0.918304 11.6605 0.989934 11.8335C1.06156 12.0064 1.16655 12.1635 1.29891 12.2959C1.43126 12.4282 1.58839 12.5332 1.76132 12.6048C1.93425 12.6765 2.11959 12.7133 2.30677 12.7133C2.68488 12.7133 3.0475 12.5631 3.31487 12.2958C3.58223 12.0284 3.73244 11.6658 3.73244 11.2877C3.73244 10.9096 3.58223 10.5469 3.31487 10.2796C3.0475 10.0122 2.68488 9.862 2.30677 9.862V9.86267ZM2.30677 3.28733C1.92866 3.28733 1.56604 3.43754 1.29867 3.7049C1.03131 3.97227 0.881104 4.33489 0.881104 4.713C0.881104 5.09111 1.03131 5.45373 1.29867 5.7211C1.56604 5.98846 1.92866 6.13867 2.30677 6.13867C2.68488 6.13867 3.0475 5.98846 3.31487 5.7211C3.58223 5.45373 3.73244 5.09111 3.73244 4.713C3.73244 4.33489 3.58223 3.97227 3.31487 3.7049C3.0475 3.43754 2.68488 3.28733 2.30677 3.28733ZM8.00144 1.03533L1.96877 4.518V11.4833L8.00144 14.966L14.0328 11.4833V4.518L8.00144 1.03533ZM8.00144 2.10267L13.1081 10.9493H2.89344L8.00144 2.10267ZM7.07677 2.35L2.64677 10.0247V4.90867L7.07677 2.35ZM8.9261 2.35L13.3568 4.90867V10.0247L8.9261 2.35ZM3.5701 11.6267H12.4321L8.00144 14.184L3.5701 11.6267Z" fill="#E10098"/>
</svg>
