<svg width="16" height="12" viewBox="0 0 16 12" fill="none" xmlns="http://www.w3.org/2000/svg">
<path d="M10.9413 0.941346H5.06133C3.71969 0.940639 2.43272 1.47293 1.48354 2.42111C0.534351 3.36929 0.000707948 4.6557 7.0388e-07 5.99735C-0.00070654 7.33899 0.53158 8.62596 1.47976 9.57514C2.42795 10.5243 3.71436 11.058 5.056 11.0587H10.9413C12.283 11.0587 13.5697 10.5257 14.5184 9.57703C15.467 8.62835 16 7.34165 16 6.00001C16 4.65837 15.467 3.37168 14.5184 2.42299C13.5697 1.47431 12.283 0.941346 10.9413 0.941346ZM10.8127 9.27601H5.19067C4.33326 9.25871 3.51681 8.90596 2.91656 8.29348C2.3163 7.68099 1.98009 6.85759 1.98009 6.00001C1.98009 5.14243 2.3163 4.31903 2.91656 3.70655C3.51681 3.09406 4.33326 2.74131 5.19067 2.72401H10.8127C11.6815 2.72401 12.5148 3.06916 13.1291 3.68353C13.7435 4.2979 14.0887 5.13116 14.0887 6.00001C14.0887 6.86886 13.7435 7.70213 13.1291 8.31649C12.5148 8.93086 11.6815 9.27601 10.8127 9.27601Z" fill="#F80000"/>
</svg>
