<svg width="16" height="16" viewBox="0 0 16 16" fill="none" xmlns="http://www.w3.org/2000/svg">
<path d="M7.84667 7.49333H6.63733V5.46799H8.072C8.852 5.46799 9.29467 5.81599 9.29467 6.44533C9.29467 7.11733 8.77933 7.49333 7.84533 7.49333H7.84667ZM8.06267 8.29733H6.638V10.5293H8.12533C9.098 10.5293 9.61333 10.1393 9.61333 9.40599C9.61333 8.67266 9.08333 8.29733 8.06267 8.29733ZM16 7.59333V8.40533C15.248 8.47733 14.7887 9.03466 14.516 9.91733C14.2447 10.7967 14.2073 11.8753 14.236 12.708C14.266 13.5747 13.5907 14.3747 12.678 14.3747H3.32333C2.41 14.3747 1.73467 13.5747 1.76533 12.708C1.794 11.8753 1.75667 10.7967 1.48533 9.91733C1.212 9.03466 0.752 8.47733 0 8.40533V7.59333C0.752 7.52133 1.21267 6.96399 1.48467 6.08133C1.75667 5.20199 1.794 4.12333 1.76467 3.29066C1.73467 2.42399 2.41 1.62399 3.32333 1.62399H12.678C13.5913 1.62399 14.266 2.42399 14.236 3.29066C14.2073 4.12333 14.2447 5.20199 14.516 6.08133C14.7887 6.96399 15.248 7.52133 16 7.59333ZM10.7153 9.47133C10.7153 8.56866 10.08 7.91599 9.13667 7.81266V7.77466C9.83 7.66199 10.374 7.01799 10.374 6.29933C10.374 5.27466 9.56533 4.60733 8.33267 4.60733H5.55933V11.3887H8.34667C9.82533 11.3887 10.7153 10.6647 10.7153 9.47133Z" fill="#7952B3"/>
</svg>
