<svg width="16" height="16" viewBox="0 0 16 16" fill="none" xmlns="http://www.w3.org/2000/svg">
<g clip-path="url(#clip0_812_5302)">
<path d="M6.0519 2.64334C5.6599 2.64334 5.26723 2.836 5.04257 3.22133L0.157235 11.622C-0.290765 12.3927 0.270568 13.356 1.16657 13.356H4.9799C4.78208 13.1852 4.6504 12.9504 4.60777 12.6926C4.56514 12.4347 4.61425 12.1701 4.74657 11.9447L8.44457 5.60267L7.06057 3.22133C6.95847 3.04449 6.81135 2.89784 6.63418 2.79632C6.457 2.69479 6.2561 2.64201 6.0519 2.64334ZM10.9899 4.59134C10.6652 4.59134 10.3412 4.74867 10.1552 5.064L6.11323 11.9373C5.7419 12.5673 6.20523 13.3573 6.94723 13.3573H15.0339C15.7766 13.3573 16.2406 12.5673 15.8692 11.9373L11.8246 5.064C11.7393 4.91868 11.6173 4.79841 11.4708 4.7153C11.3242 4.6322 11.1584 4.58921 10.9899 4.59067V4.59134Z" fill="#00DC82"/>
</g>
<defs>
<clipPath id="clip0_812_5302">
<rect width="16" height="16" fill="white"/>
</clipPath>
</defs>
</svg>
