<svg width="16" height="16" viewBox="0 0 16 16" fill="none" xmlns="http://www.w3.org/2000/svg">
<path d="M9.48667 8.00264C9.48667 8.39788 9.32971 8.77693 9.0503 9.05647C8.77089 9.336 8.3919 9.49313 7.99667 9.49331C7.60132 9.49331 7.22216 9.33626 6.94261 9.0567C6.66305 8.77715 6.506 8.39799 6.506 8.00264C6.506 7.60741 6.66296 7.22835 6.94237 6.94882C7.22178 6.66928 7.60077 6.51215 7.996 6.51198C8.39135 6.51198 8.77051 6.66903 9.05006 6.94858C9.32961 7.22814 9.48667 7.60729 9.48667 8.00264ZM11.252 0.875977C10.3547 0.875977 9.18067 1.51598 7.99333 2.62398C6.80667 1.52198 5.632 0.88931 4.73533 0.88931C4.462 0.88931 4.21333 0.95131 3.998 1.07464C3.08133 1.60331 2.876 3.25064 3.34933 5.31798C1.32 5.94464 0 6.94664 0 8.00264C0 9.06264 1.32667 10.0673 3.362 10.6893C2.89267 12.7646 3.102 14.4146 4.02067 14.9426C4.234 15.0673 4.48067 15.126 4.75533 15.126C5.652 15.126 6.82667 14.486 8.014 13.3766C9.20067 14.4793 10.3753 15.112 11.272 15.112C11.5453 15.112 11.794 15.052 12.0093 14.9286C12.9253 14.4006 13.1313 12.7533 12.658 10.6853C14.68 10.064 16 9.05998 16 8.00264C16 6.94264 14.6733 5.93798 12.638 5.31464C13.1073 3.24131 12.898 1.58998 11.9793 1.06131C11.7673 0.938643 11.5207 0.876643 11.2513 0.875977H11.252ZM11.2487 1.60264V1.60664C11.3987 1.60664 11.5193 1.63598 11.6207 1.69131C12.0647 1.94598 12.2573 2.91464 12.1073 4.16064C12.0713 4.46731 12.0127 4.79064 11.9407 5.12064C11.3007 4.96331 10.6033 4.84264 9.86933 4.76464C9.42933 4.16131 8.97267 3.61331 8.51267 3.13331C9.574 2.14664 10.5707 1.60531 11.2493 1.60331L11.2487 1.60264ZM4.73533 1.61598C5.41 1.61598 6.41133 2.15464 7.47533 3.13598C7.018 3.61598 6.562 4.16064 6.12867 4.76398C5.39067 4.84198 4.69267 4.96264 4.05333 5.12264C3.97867 4.79598 3.92333 4.47998 3.884 4.17598C3.73067 2.93064 3.92 1.96264 4.36 1.70464C4.48667 1.64464 4.62667 1.61998 4.73533 1.61664V1.61598ZM7.99 3.64931C8.29333 3.96131 8.59667 4.31064 8.89667 4.69198C8.60333 4.67864 8.30333 4.66931 8 4.66931C7.69333 4.66931 7.39 4.67598 7.09333 4.69198C7.38667 4.31064 7.69 3.96131 7.99 3.64864V3.64931ZM8 5.39998C8.49333 5.39998 8.98467 5.42264 9.468 5.46198C9.73867 5.84998 10.0027 6.26398 10.2567 6.70198C10.5047 7.12864 10.73 7.56198 10.9353 7.99931C10.73 8.43598 10.5047 8.87264 10.26 9.29931C10.0067 9.73931 9.74467 10.158 9.47333 10.546C8.988 10.588 8.496 10.6113 8 10.6113C7.50667 10.6113 7.01533 10.588 6.532 10.5493C6.26133 10.1613 5.99733 9.74664 5.74333 9.30931C5.49533 8.88264 5.27 8.44931 5.06467 8.01198C5.26667 7.57398 5.49533 7.13664 5.74 6.70931C5.99333 6.26931 6.25533 5.85198 6.52667 5.46398C7.012 5.42131 7.504 5.39864 8 5.39864V5.39998ZM5.57667 5.56931C5.41667 5.82064 5.25667 6.07798 5.10733 6.34264C4.95733 6.60264 4.81733 6.86398 4.684 7.12531C4.50733 6.68798 4.35733 6.25198 4.23333 5.82731C4.66 5.72731 5.11 5.63864 5.57667 5.56998V5.56931ZM10.4167 5.56931C10.88 5.63798 11.3267 5.72264 11.754 5.82731C11.634 6.24864 11.484 6.68198 11.314 7.11598C11.1807 6.85598 11.0407 6.59398 10.8873 6.33331C10.7373 6.07198 10.5773 5.81731 10.4173 5.56931H10.4167ZM12.4587 6.01931C12.7813 6.11931 13.088 6.23064 13.3753 6.35131C14.53 6.84464 15.2767 7.48998 15.2767 8.00198C15.2733 8.51398 14.5267 9.16198 13.372 9.65198C13.092 9.77198 12.7853 9.87998 12.4687 9.98064C12.282 9.34198 12.038 8.67664 11.7353 7.99398C12.0353 7.31598 12.2753 6.65398 12.4587 6.01798V6.01931ZM3.52867 6.02198C3.714 6.66198 3.95867 7.32664 4.262 8.00864C3.962 8.68664 3.72067 9.34864 3.538 9.98464C3.21533 9.88464 2.90867 9.77264 2.62467 9.65131C1.47 9.15998 0.723333 8.51398 0.723333 8.00198C0.723333 7.48998 1.47 6.84064 2.62467 6.35131C2.90467 6.23131 3.21133 6.12331 3.52867 6.02198ZM11.314 8.87531C11.4907 9.31331 11.6407 9.74998 11.7647 10.174C11.338 10.2786 10.8873 10.3673 10.4207 10.434C10.5807 10.184 10.7407 9.92598 10.8907 9.66198C11.0407 9.40198 11.1807 9.13664 11.3147 8.87531H11.314ZM4.684 8.88864C4.81733 9.14998 4.95733 9.41064 5.11067 9.67198C5.264 9.93198 5.42067 10.1866 5.58067 10.434C5.11733 10.366 4.67067 10.2806 4.24333 10.1766C4.36333 9.75664 4.514 9.32198 4.68333 8.88798L4.684 8.88864ZM11.9467 10.88C12.0213 11.2086 12.08 11.5253 12.116 11.8286C12.2693 13.074 12.08 14.042 11.64 14.3006C11.542 14.3606 11.4147 14.386 11.2647 14.386C10.59 14.386 9.58867 13.848 8.52467 12.866C8.982 12.386 9.438 11.842 9.87133 11.2393C10.6093 11.1606 11.3073 11.0393 11.9467 10.8793V10.88ZM4.06 10.8866C4.7 11.0426 5.39733 11.1633 6.13133 11.2413C6.57133 11.8446 7.028 12.3926 7.488 12.872C6.42467 13.8606 5.42667 14.402 4.748 14.402C4.60133 14.3986 4.47733 14.3686 4.37933 14.314C3.93533 14.0606 3.74267 13.0913 3.89267 11.8453C3.92867 11.5386 3.98733 11.216 4.05933 10.8866H4.06ZM7.1 11.3133C7.39333 11.3266 7.69333 11.336 7.99667 11.336C8.30333 11.336 8.60667 11.3293 8.90333 11.3133C8.61 11.6946 8.30667 12.0433 8.00667 12.3566C7.70333 12.0433 7.4 11.6946 7.1 11.3133Z" fill="#61DAFB"/>
</svg>
