<svg width="16" height="16" viewBox="0 0 16 16" fill="none" xmlns="http://www.w3.org/2000/svg">
<g clip-path="url(#clip0_824_5543)">
<path d="M5.22268 2.66668C2.72934 2.72668 0.389343 4.54402 0.0400096 7.34268C-0.0752225 8.27214 0.0564926 9.21556 0.421887 10.0779C0.787281 10.9402 1.37345 11.691 2.12134 12.2547C3.95934 13.6413 6.25334 13.6193 8.00134 12.6133C8.81146 13.0824 9.73081 13.3297 10.6669 13.3304C11.6029 13.3311 12.5226 13.0852 13.3335 12.6174C14.1443 12.1497 14.8176 11.4765 15.2857 10.6658C15.7537 9.85504 15.9999 8.93529 15.9996 7.99912C15.9993 7.06295 15.7524 6.14339 15.2837 5.33298C14.8151 4.52258 14.1413 3.84994 13.3301 3.38275C12.519 2.91557 11.5991 2.67033 10.663 2.67172C9.72696 2.67311 8.80778 2.92109 7.99801 3.39068C7.15793 2.89491 6.19588 2.64412 5.22068 2.66668H5.22268ZM5.30401 3.65668C6.34739 3.65119 7.358 4.02097 8.15151 4.69859C8.94502 5.3762 9.46857 6.31651 9.62668 7.34802C9.62668 7.35268 9.62801 7.35668 9.62868 7.36135C9.64201 7.45668 9.65334 7.55268 9.66068 7.65002L9.66468 7.68602C9.67134 7.78602 9.67534 7.88802 9.67601 7.99002C9.67601 8.04602 9.67268 8.10202 9.67068 8.15802C9.66934 8.19668 9.66868 8.23601 9.66601 8.27468C9.66122 8.34928 9.65455 8.42375 9.64601 8.49801L9.63934 8.55135C9.62934 8.63135 9.61734 8.71135 9.60268 8.79002L9.59601 8.82201C9.58134 8.90468 9.56268 8.98735 9.54268 9.06868L9.53868 9.08535C9.47152 9.34883 9.38001 9.60549 9.26534 9.85201C9.26068 9.86268 9.25401 9.87401 9.24934 9.88535C8.98988 10.4245 8.62225 10.9045 8.16934 11.2953L8.13334 11.326C8.08001 11.3707 8.02534 11.4127 7.97001 11.4553C7.93334 11.4833 7.89668 11.5113 7.85801 11.5387C7.83134 11.5587 7.80468 11.576 7.77668 11.5947C7.54074 11.7543 7.29004 11.8909 7.02801 12.0027C6.3257 12.3001 5.55748 12.4074 4.80056 12.3138C4.04365 12.2202 3.32471 11.929 2.71601 11.4693C0.0460094 9.45602 0.558676 5.30668 3.63801 4.00268C4.16513 3.7788 4.73134 3.66143 5.30401 3.65735V3.65668ZM5.71068 6.13668C5.58868 6.13668 5.48201 6.14535 5.47601 6.15802C5.46934 6.17402 5.38801 6.49402 5.30001 6.87402C5.20934 7.25402 5.06468 7.85268 4.98334 8.20735C4.82668 8.85668 4.73201 9.28268 4.73201 9.33935C4.73201 9.35468 4.82934 9.36735 4.94868 9.36735H5.16534L5.26268 8.93401L5.54468 7.73668C5.64468 7.31335 5.76734 6.79802 5.81468 6.59002C5.86134 6.38335 5.90801 6.19602 5.91801 6.17402C5.92734 6.14535 5.87401 6.13602 5.71134 6.13602L5.71068 6.13668ZM4.08334 7.20335L3.79134 7.51668L3.50268 7.83002L3.58734 7.93002C3.63401 7.98735 3.76334 8.12868 3.87268 8.24468L4.07401 8.45801H4.64468L4.37468 8.16601C4.22734 8.00935 4.10468 7.85935 4.10468 7.83935C4.10468 7.81802 4.21801 7.67735 4.35601 7.52601C4.49401 7.37268 4.60668 7.24068 4.60668 7.22602C4.60668 7.21268 4.48801 7.20335 4.34334 7.20335H4.08334ZM6.26334 7.20335C6.10934 7.20335 5.98668 7.21268 5.98668 7.22202C5.98668 7.23135 6.04001 7.29068 6.10668 7.35668C6.35068 7.60135 6.52268 7.80868 6.51334 7.85002C6.50734 7.87135 6.38801 8.01868 6.24334 8.17268L5.98334 8.45801H6.27468L6.56668 8.45468L6.83334 8.16268C6.98001 8.00002 7.10001 7.85602 7.10001 7.83602C7.10001 7.82068 6.97468 7.67335 6.81734 7.50735L6.53534 7.20268L6.26334 7.20335Z" fill="#F02E65"/>
</g>
<defs>
<clipPath id="clip0_824_5543">
<rect width="16" height="16" fill="white"/>
</clipPath>
</defs>
</svg>
