<svg width="16" height="16" viewBox="0 0 16 16" fill="none" xmlns="http://www.w3.org/2000/svg">
<g clip-path="url(#clip0_824_5443)">
<path d="M7.94575 3.07692C8.84279 3.07692 9.56997 2.38813 9.56997 1.53846C9.56997 0.688793 8.84279 0 7.94575 0C7.04872 0 6.32153 0.688793 6.32153 1.53846C6.32153 2.38813 7.04872 3.07692 7.94575 3.07692Z" fill="#007AF4"/>
<path d="M7.94575 16C8.84279 16 9.56997 15.3112 9.56997 14.4615C9.56997 13.6119 8.84279 12.9231 7.94575 12.9231C7.04872 12.9231 6.32153 13.6119 6.32153 14.4615C6.32153 15.3112 7.04872 16 7.94575 16Z" fill="#007AF4"/>
<path d="M5.91705 4.58523C5.91705 7.72144 10.9305 8.33682 10.9305 11.2765M8.05388 2.8718C7.72925 5.33333 10.9777 4.71795 10.9777 6.46154C10.9777 7.48718 9.70474 7.76718 8.05388 7.89744C6.7545 8 5.02222 8 5.02222 9.64103C5.02222 11.2821 8.48722 10.7692 8.05388 13.1282V2.8718Z" stroke="#007AF4"/>
</g>
<defs>
<clipPath id="clip0_824_5443">
<rect width="16" height="16" fill="white"/>
</clipPath>
</defs>
</svg>
