<svg width="13" height="16" viewBox="0 0 13 16" fill="none" xmlns="http://www.w3.org/2000/svg">
<path d="M4.18698 12.3737C4.18698 12.3737 3.51339 12.7293 4.66635 12.8496C6.06313 12.9943 6.777 12.9735 8.31626 12.7091C8.31626 12.7091 8.72095 12.9394 9.28612 13.1389C5.83551 14.4813 1.47671 13.0612 4.18698 12.3737ZM3.76533 10.622C3.76533 10.622 3.00984 11.1296 4.16365 11.238C5.65573 11.3777 6.83406 11.3891 8.87303 11.0327C8.87303 11.0327 9.15509 11.2923 9.59854 11.4342C5.4265 12.5415 0.779652 11.5215 3.76533 10.622Z" fill="#5382A1"/>
<path d="M7.31988 7.65041C8.17011 8.53896 7.09653 9.33859 7.09653 9.33859C7.09653 9.33859 9.25532 8.32696 8.26389 7.06016C7.33788 5.87875 6.62776 5.29182 10.4721 3.26801C10.4721 3.26796 4.43776 4.63597 7.31988 7.65041Z" fill="#E76F00"/>
<path d="M11.8835 13.6694C11.8835 13.6694 12.3819 14.0422 11.3345 14.3306C9.34277 14.8783 3.04468 15.0437 1.2951 14.3525C0.666166 14.1041 1.84559 13.7594 2.21659 13.6871C2.60351 13.6109 2.82461 13.6251 2.82461 13.6251C2.12518 13.1779 -1.69624 14.5033 0.883522 14.8829C7.91891 15.9185 13.7084 14.4165 11.8835 13.6694ZM4.51072 8.80692C4.51072 8.80692 1.30712 9.49761 3.37625 9.74843C4.2499 9.8546 5.9915 9.83058 7.61371 9.7072C8.93951 9.60568 10.2708 9.38989 10.2708 9.38989C10.2708 9.38989 9.80332 9.57161 9.4651 9.7812C6.2119 10.5579 -0.072701 10.1965 1.73655 9.40213C3.26664 8.73076 4.51072 8.80692 4.51072 8.80692ZM10.2576 11.7228C13.5646 10.1629 12.0356 8.66383 10.9683 8.86583C10.7068 8.91525 10.5901 8.95807 10.5901 8.95807C10.5901 8.95807 10.6873 8.81999 10.8727 8.76022C12.984 8.08643 14.6078 10.7475 10.1911 11.8014C10.1911 11.8014 10.2424 11.76 10.2576 11.7228Z" fill="#5382A1"/>
<path d="M8.26397 0C8.26397 0 10.0955 1.66299 6.52688 4.2203C3.66524 6.27163 5.87434 7.44127 6.52569 8.77767C4.85535 7.40961 3.62952 6.20539 4.4519 5.08457C5.65893 3.43931 9.00293 2.64162 8.26397 0Z" fill="#E76F00"/>
<path d="M4.83581 15.9496C8.01015 16.1341 12.8847 15.8473 13.0001 14.4839C13.0001 14.4839 12.7782 15.0008 10.3767 15.4113C7.66737 15.874 4.3257 15.82 2.34375 15.5234C2.34385 15.5233 2.74953 15.8282 4.83581 15.9496Z" fill="#5382A1"/>
</svg>
