<svg width="16" height="16" viewBox="0 0 16 16" fill="none" xmlns="http://www.w3.org/2000/svg">
<path d="M10.568 5.98733H7.50932V0H10.568C12.2187 0 13.5613 1.34267 13.5613 2.99333C13.5613 4.644 12.2187 5.98733 10.568 5.98733ZM8.48999 5.00667H10.568C11.678 5.00667 12.5807 4.10333 12.5807 2.994C12.5807 1.88467 11.6773 0.981333 10.568 0.981333H8.48999V5.00667ZM8.48999 5.98733H5.43199C3.78132 5.98733 2.43865 4.64467 2.43865 2.994C2.43865 1.34333 3.78132 0 5.43199 0H8.49066V5.98733H8.48999ZM5.43199 0.980667C4.32199 0.980667 3.41932 1.884 3.41932 2.99333C3.41932 4.10267 4.32199 5.00667 5.43199 5.00667H7.50999V0.980667H5.43199ZM8.48999 10.9933H5.43199C3.78132 10.9933 2.43865 9.65067 2.43865 8C2.43865 6.34933 3.78132 5.00667 5.43199 5.00667H8.49066V10.9933H8.48999ZM5.43199 5.98733C4.32199 5.98733 3.41932 6.89067 3.41932 8C3.41932 9.10933 4.32265 10.0127 5.43199 10.0127H7.50999V5.98733H5.43199ZM5.44799 16C3.78865 16 2.43799 14.6573 2.43799 13.0067C2.43799 11.356 3.78066 10.0133 5.43132 10.0133H8.48999V12.974C8.48999 14.6427 7.12532 16 5.44799 16ZM5.43199 10.9933C4.89841 10.994 4.38689 11.2063 4.0096 11.5836C3.6323 11.9609 3.42003 12.4724 3.41932 13.006C3.41932 14.116 4.32932 15.0187 5.44866 15.0187C6.58532 15.0187 7.51065 14.1013 7.51065 12.9733V10.9933H5.43199ZM10.568 10.9933H10.5027C8.85199 10.9933 7.50932 9.65067 7.50932 8C7.50932 6.34933 8.85199 5.00667 10.5027 5.00667H10.568C12.2187 5.00667 13.5613 6.34933 13.5613 8C13.5613 9.65067 12.2187 10.9933 10.568 10.9933ZM10.5033 5.98733C9.39332 5.98733 8.49066 6.89067 8.49066 8C8.49066 9.10933 9.39399 10.0127 10.5033 10.0127H10.5687C11.6787 10.0127 12.5813 9.10933 12.5813 8C12.5813 6.89067 11.678 5.98733 10.5687 5.98733H10.5033Z" fill="#F24E1E"/>
</svg>
