<svg width="16" height="16" viewBox="0 0 16 16" fill="none" xmlns="http://www.w3.org/2000/svg">
<path d="M7.43077 0H10.0468V12.1107C8.70477 12.3653 7.71944 12.4673 6.64944 12.4673C3.45544 12.4673 1.79077 11.0233 1.79077 8.254C1.79077 5.586 3.55744 3.854 6.29277 3.854C6.71744 3.854 7.0401 3.88733 7.43077 3.98933V0ZM7.43077 6.09533C7.1464 5.99927 6.84753 5.95326 6.54744 5.95933C5.22211 5.95933 4.4581 6.77467 4.4581 8.20267C4.4581 9.596 5.18877 10.36 6.53077 10.36C6.81944 10.36 7.05744 10.3433 7.43077 10.292V6.09467V6.09533ZM14.2094 4.04V10.1053C14.2094 12.1947 14.0568 13.1973 13.5981 14.0633C13.1734 14.896 12.6128 15.4227 11.4574 16L9.0281 14.8447C10.1834 14.3013 10.7441 13.8247 11.1008 13.0947C11.4748 12.3473 11.5934 11.4807 11.5934 9.20467V4.03933H14.2094V4.04ZM11.5934 0.014H14.2094V2.698H11.5934V0.014Z" fill="#092E20"/>
</svg>
