<svg width="16" height="16" viewBox="0 0 16 16" fill="none" xmlns="http://www.w3.org/2000/svg">
<g clip-path="url(#clip0_812_5309)">
<path d="M13.486 10.5287C13.5535 10.4899 13.6096 10.434 13.6487 10.3667C13.6878 10.2992 13.7085 10.2226 13.7087 10.1447L13.7167 7.57266C13.7168 7.49467 13.7375 7.4181 13.7767 7.35066C13.8159 7.28325 13.8723 7.22737 13.94 7.18866L15.3333 6.38666C15.4009 6.348 15.4775 6.32777 15.5553 6.32799C15.6333 6.32818 15.7099 6.34887 15.7773 6.38799C15.8448 6.42682 15.9009 6.48268 15.94 6.54999C15.9789 6.6175 15.9994 6.69407 15.9993 6.77199V11.448C15.9993 11.5262 15.9786 11.603 15.9394 11.6706C15.9002 11.7383 15.8438 11.7944 15.776 11.8333L10.514 14.856C10.4468 14.8945 10.3708 14.9147 10.2933 14.9147C10.2159 14.9147 10.1398 14.8945 10.0727 14.856L5.94333 12.4947C5.87529 12.4558 5.81872 12.3997 5.77933 12.332C5.73999 12.2641 5.71929 12.1871 5.71934 12.1087V9.75066C5.71934 9.74799 5.722 9.74666 5.72467 9.74799C5.72733 9.74932 5.73 9.74799 5.73 9.74466V9.74199C5.73 9.73999 5.73133 9.73866 5.73267 9.73732L9.134 7.78399C9.13667 7.78199 9.13533 7.77732 9.132 7.77732C9.13148 7.77732 9.13097 7.7772 9.13051 7.77697C9.13005 7.77674 9.12965 7.7764 9.12934 7.77599C9.12904 7.77562 9.12883 7.77519 9.12871 7.77473C9.1286 7.77427 9.12858 7.77379 9.12867 7.77332L9.13533 5.46199C9.13565 5.3837 9.11528 5.30672 9.0763 5.23882C9.03732 5.17093 8.9811 5.11453 8.91333 5.07532C8.84574 5.0363 8.76906 5.01575 8.691 5.01575C8.61295 5.01575 8.53627 5.0363 8.46867 5.07532L5.94133 6.53266C5.8739 6.57144 5.79746 6.59185 5.71967 6.59185C5.64187 6.59185 5.56544 6.57144 5.498 6.53266L2.962 5.07266C2.89446 5.0339 2.81792 5.01355 2.74005 5.01366C2.66218 5.01377 2.5857 5.03432 2.51827 5.07327C2.45083 5.11222 2.39481 5.16819 2.35581 5.23559C2.3168 5.30299 2.29618 5.37945 2.296 5.45732V9.63532C2.29603 9.71321 2.2756 9.78974 2.23675 9.85724C2.19791 9.92475 2.14202 9.98087 2.07467 10.02C2.00742 10.059 1.93109 10.0797 1.85333 10.08C1.77547 10.0802 1.69892 10.06 1.63133 10.0213L0.224001 9.21666C0.15596 9.17783 0.0993839 9.12171 0.060001 9.05399C0.0205407 8.98595 -0.000163335 8.90865 9.70368e-07 8.82999L0.0126676 1.52799C0.0129094 1.45022 0.0335462 1.37386 0.0725182 1.30656C0.11149 1.23925 0.167434 1.18334 0.234766 1.14442C0.302098 1.10549 0.378463 1.0849 0.456238 1.08471C0.534013 1.08452 0.610478 1.10473 0.678001 1.14332L5.498 3.91199C5.56544 3.95077 5.64187 3.97118 5.71967 3.97118C5.79746 3.97118 5.8739 3.95077 5.94133 3.91199L10.76 1.14332C10.8276 1.10464 10.9041 1.08441 10.982 1.08466C11.06 1.08481 11.1366 1.10551 11.204 1.14466C11.2716 1.18367 11.3277 1.23977 11.3667 1.30732C11.4053 1.37491 11.4256 1.45146 11.4253 1.52932V8.83332C11.4253 8.91132 11.4053 8.98799 11.366 9.05599C11.3268 9.12363 11.2705 9.17974 11.2027 9.21866L8.67933 10.672C8.61145 10.7111 8.55511 10.7674 8.516 10.8353C8.47697 10.903 8.4565 10.9798 8.45667 11.058C8.45674 11.1362 8.47744 11.213 8.51667 11.2807C8.55621 11.3485 8.61303 11.4046 8.68134 11.4433L10.0733 12.236C10.1404 12.274 10.2162 12.294 10.2933 12.294C10.371 12.2939 10.4473 12.2734 10.5147 12.2347L13.486 10.528V10.5287ZM13.778 3.97666C13.7779 4.0551 13.7986 4.13215 13.838 4.19999C13.8777 4.2679 13.9348 4.32404 14.0033 4.36266C14.0716 4.40125 14.1489 4.42109 14.2274 4.42015C14.3058 4.41921 14.3826 4.39754 14.45 4.35732L15.784 3.55732C15.8498 3.51788 15.9042 3.46206 15.942 3.39532C15.98 3.32846 16 3.25289 16 3.17599V1.54666C15.9998 1.46816 15.9789 1.39111 15.9393 1.32332C15.8997 1.25553 15.8427 1.19946 15.7743 1.16082C15.7059 1.12218 15.6285 1.10234 15.55 1.10332C15.4716 1.1042 15.3947 1.12582 15.3273 1.16599L13.994 1.96599C13.928 2.00535 13.8733 2.06117 13.8353 2.12799C13.7976 2.19493 13.7779 2.27049 13.778 2.34732V3.97732V3.97666Z" fill="#007FFF"/>
</g>
<defs>
<clipPath id="clip0_812_5309">
<rect width="16" height="16" fill="white"/>
</clipPath>
</defs>
</svg>
