<svg width="16" height="16" viewBox="0 0 16 16" fill="none" xmlns="http://www.w3.org/2000/svg">
<g clip-path="url(#clip0_812_5303)">
<path d="M11.0893 11.0027C11.6693 10.9527 12.118 10.4427 12.0893 9.83333C12.058 9.224 11.5587 8.73466 10.95 8.73466H10.9093C10.6073 8.74544 10.3219 8.87572 10.1158 9.09687C9.90981 9.31802 9.80004 9.61194 9.81066 9.914C9.83066 10.2333 9.96132 10.4933 10.14 10.6827C9.44132 12.0413 8.39266 13.04 6.80332 13.8793C5.73466 14.438 4.60599 14.6487 3.50732 14.4993C2.58866 14.3693 1.86999 13.9593 1.42999 13.3C0.771324 12.3007 0.711324 11.2227 1.25999 10.144C1.65999 9.364 2.25932 8.79533 2.65932 8.51533C2.53857 8.1805 2.44494 7.8365 2.37932 7.48666C-0.578676 9.60533 -0.277343 12.5013 0.621324 13.87C1.29066 14.8687 2.65932 15.5073 4.15732 15.5073C4.55732 15.5073 4.97732 15.478 5.38599 15.378C7.98399 14.8787 9.95133 13.3207 11.08 11.0233L11.0893 11.0027ZM14.6547 8.50533C13.108 6.68666 10.8293 5.688 8.23199 5.688H7.89199C7.72332 5.31866 7.33399 5.08866 6.89332 5.08866H6.86332C6.23466 5.08866 5.74466 5.62866 5.76532 6.25733C5.78532 6.856 6.29466 7.356 6.90399 7.356H6.95332C7.16945 7.34765 7.3786 7.27727 7.55581 7.15326C7.73302 7.02925 7.87078 6.85685 7.95266 6.65666H8.32266C9.86199 6.65666 11.3193 7.106 12.648 7.98466C13.666 8.65466 14.396 9.53333 14.806 10.5827C15.1647 11.4413 15.1453 12.2807 14.776 12.9807C14.206 14.0787 13.2467 14.6587 11.9787 14.6587C11.1793 14.6587 10.4007 14.4087 10.0007 14.2293C9.76066 14.428 9.36066 14.758 9.07132 14.958C9.94999 15.3567 10.8393 15.5867 11.698 15.5867C13.646 15.5867 15.094 14.4887 15.644 13.4293C16.2427 12.2307 16.1933 10.2133 14.664 8.48533L14.6547 8.50533ZM4.32666 11.3613C4.34666 11.9607 4.85532 12.46 5.46532 12.46H5.50532C5.65544 12.4566 5.80337 12.4232 5.94038 12.3618C6.07739 12.3003 6.20073 12.2121 6.30311 12.1023C6.4055 11.9924 6.48486 11.8632 6.53654 11.7222C6.58821 11.5812 6.61115 11.4313 6.60399 11.2813C6.60399 10.6813 6.08466 10.1833 5.47532 10.1833H5.43532C5.39532 10.1833 5.33532 10.1833 5.28466 10.2027C4.45599 8.804 4.10599 7.30466 4.23666 5.688C4.31666 4.46933 4.71666 3.41 5.43466 2.53133C6.03466 1.782 7.16332 1.41133 7.93266 1.39266C10.09 1.352 10.9893 4.04 11.0587 5.10866L12.0573 5.40866C11.8273 2.13133 9.79066 0.41333 7.84266 0.41333C6.01332 0.41333 4.32666 1.742 3.64666 3.69C2.71799 6.28666 3.32732 8.78466 4.46666 10.7827C4.36666 10.9127 4.30666 11.142 4.32666 11.3613Z" fill="#764ABC"/>
</g>
<defs>
<clipPath id="clip0_812_5303">
<rect width="16" height="16" fill="white"/>
</clipPath>
</defs>
</svg>
