<svg width="16" height="16" viewBox="0 0 16 16" fill="none" xmlns="http://www.w3.org/2000/svg">
<path d="M9.42069 0.0313416C9.30536 0.0313416 9.19802 0.0560082 9.09869 0.0893416C9.30936 0.229342 9.42536 0.416008 9.48269 0.626675C9.48736 0.655342 9.49536 0.676008 9.49936 0.704675C9.5043 0.729281 9.5072 0.754256 9.50802 0.779342C9.52402 1.14267 9.41269 1.18867 9.33469 1.40334C9.21469 1.68001 9.24802 1.97734 9.39202 2.21668C9.40521 2.24877 9.42175 2.27938 9.44136 2.30801C9.28469 1.26267 10.1567 1.10601 10.3174 0.779342C10.33 0.494008 10.0947 0.304008 9.90869 0.172008C9.76252 0.0801609 9.59332 0.0316187 9.42069 0.0320082V0.0313416ZM10.7347 0.266675C10.7187 0.362008 10.7307 0.337342 10.7267 0.386675C10.7227 0.420008 10.7227 0.461342 10.7187 0.494008C10.71 0.527342 10.702 0.560675 10.6894 0.593342C10.6814 0.626675 10.6694 0.660008 10.656 0.692675L10.6114 0.787342C10.598 0.804008 10.5907 0.820675 10.578 0.837342L10.5534 0.874008C10.5337 0.902299 10.513 0.929873 10.4914 0.956675C10.4667 0.982008 10.446 1.01067 10.4167 1.03134V1.03534C10.392 1.05601 10.3674 1.08067 10.338 1.10201C10.2514 1.16801 10.1527 1.21734 10.0614 1.27934C10.0327 1.29934 10.0034 1.31667 9.97869 1.34134C9.95064 1.36107 9.92433 1.38315 9.90002 1.40734C9.87136 1.43201 9.85069 1.45668 9.82602 1.48601C9.80536 1.51068 9.78069 1.53934 9.76402 1.56867C9.74327 1.59659 9.72392 1.62551 9.70602 1.65534C9.68936 1.68868 9.67736 1.71734 9.66069 1.75001C9.64802 1.78334 9.63602 1.81201 9.62736 1.84534C9.61642 1.87939 9.60686 1.91386 9.59869 1.94868C9.59469 1.96534 9.59469 1.98601 9.59069 2.00201C9.58602 2.01867 9.58602 2.03534 9.58202 2.05201C9.58202 2.08534 9.57802 2.12201 9.57802 2.15534C9.57802 2.18001 9.57802 2.20467 9.58202 2.22934C9.58202 2.26268 9.58602 2.29601 9.59469 2.33267C9.59869 2.36601 9.60669 2.39934 9.61469 2.43267C9.62802 2.46534 9.63602 2.49801 9.64802 2.53134C9.65669 2.55134 9.66869 2.57267 9.67736 2.58934L8.72669 2.22134C8.56602 2.17601 8.40869 2.13468 8.24736 2.09734L7.98736 2.03534C7.73936 1.98601 7.48736 1.94867 7.23536 1.92401C7.22669 1.92401 7.22269 1.92001 7.21469 1.92001C6.78887 1.87735 6.36015 1.87178 5.93336 1.90334C5.68136 1.92001 5.42936 1.95267 5.17736 1.99401C4.99008 2.02628 4.80398 2.06497 4.61936 2.11001L4.43336 2.15934C4.37202 2.18401 4.31336 2.21268 4.25602 2.23801L4.11936 2.30001C4.11136 2.30401 4.10336 2.30401 4.09936 2.30801C4.05736 2.32868 4.02069 2.34534 3.98336 2.36601C3.92968 2.38969 3.87717 2.41594 3.82602 2.44467C3.79736 2.45668 3.76869 2.47334 3.74336 2.48601C3.73152 2.49336 3.71928 2.50003 3.70669 2.50601C3.66936 2.52734 3.63202 2.54801 3.59869 2.56868C3.56467 2.58748 3.53173 2.60818 3.50002 2.63068C3.47069 2.65068 3.44202 2.66734 3.41736 2.68801C3.41336 2.69268 3.40869 2.69268 3.40469 2.69668C3.38002 2.71334 3.35136 2.73401 3.32602 2.75467L3.31802 2.76268L3.25602 2.81201C3.24802 2.81667 3.23936 2.82468 3.23136 2.82868C3.21069 2.84534 3.19002 2.86601 3.16936 2.88201C3.16536 2.89068 3.15669 2.89534 3.15269 2.89867C3.12802 2.92401 3.10336 2.94467 3.07869 2.96934C3.07402 2.96934 3.07402 2.97334 3.07002 2.97734C3.04433 2.9998 3.01964 3.02338 2.99602 3.04801C2.99136 3.05201 2.99136 3.05601 2.98736 3.05601C2.96566 3.07725 2.94497 3.09949 2.92536 3.12267C2.91736 3.13068 2.90536 3.13867 2.89669 3.14667C2.87455 3.17287 2.85096 3.1978 2.82602 3.22134C2.82202 3.22934 2.81402 3.23401 2.81002 3.24134C2.77669 3.27468 2.74802 3.30801 2.71469 3.34134L2.70269 3.35334C2.63602 3.42401 2.56602 3.49401 2.49136 3.55601C2.41736 3.62268 2.33869 3.68401 2.26002 3.73801C2.10208 3.85083 1.93161 3.94501 1.75202 4.01867C1.66536 4.05601 1.57402 4.08934 1.48336 4.11801C1.31002 4.15534 1.13202 4.22534 0.979358 4.23801C0.946025 4.23801 0.909358 4.24601 0.876025 4.25001L0.772692 4.27468L0.673358 4.31201C0.640025 4.32468 0.607358 4.34134 0.574692 4.35734C0.545358 4.37801 0.512692 4.39468 0.483358 4.41534C0.453944 4.43663 0.426299 4.46026 0.400692 4.48601C0.372025 4.50601 0.342692 4.53534 0.318025 4.56001C0.293358 4.58868 0.268692 4.61334 0.248025 4.64268C0.227358 4.67601 0.202692 4.70468 0.186025 4.73801C0.16431 4.76804 0.14492 4.79969 0.128025 4.83267C0.111358 4.87001 0.0946916 4.90334 0.0826916 4.94001C0.0700249 4.97334 0.0580249 5.01067 0.0453583 5.04734C0.0373583 5.08068 0.0286916 5.11401 0.0253583 5.14734C0.0253583 5.15068 0.0206916 5.15534 0.0206916 5.15934C0.0126916 5.19667 0.0126916 5.24601 0.00802493 5.27068C0.00402493 5.30001 2.49295e-05 5.32401 2.49295e-05 5.35334C-0.000742083 5.42524 0.0162009 5.49621 0.0493583 5.56001V5.56401C0.0620249 5.58868 0.0786916 5.61401 0.0953583 5.63868C0.111358 5.66334 0.128692 5.68801 0.148692 5.71268C0.169358 5.73334 0.194025 5.75868 0.219358 5.77934C0.243447 5.8035 0.269541 5.82558 0.297358 5.84534C0.396692 5.93201 0.421358 5.96068 0.549358 6.02668C0.570025 6.03934 0.590692 6.04734 0.616025 6.06001C0.620025 6.06001 0.624025 6.06401 0.628025 6.06401C0.628025 6.07267 0.628025 6.07667 0.632025 6.08467C0.641675 6.15282 0.659585 6.21953 0.685358 6.28334C0.698692 6.30801 0.706692 6.33268 0.718692 6.35734C0.723358 6.36601 0.727358 6.37401 0.732025 6.37801C0.748025 6.41134 0.764692 6.44001 0.780692 6.46934L0.842692 6.55601C0.863358 6.58067 0.888692 6.60934 0.913358 6.63468C0.938025 6.65934 0.962692 6.68001 0.992025 6.70468C0.992025 6.70468 0.996025 6.70867 1.00002 6.70867C1.02469 6.72934 1.04936 6.75001 1.07469 6.76667C1.10344 6.78685 1.13376 6.80468 1.16536 6.82001C1.19402 6.83667 1.22736 6.85334 1.26002 6.86601C1.28666 6.87803 1.31433 6.88762 1.34269 6.89468C1.34736 6.89867 1.35136 6.89867 1.35936 6.90268C1.37602 6.90734 1.39669 6.91134 1.41269 6.91534C1.40069 7.13868 1.39669 7.34868 1.43002 7.42334C1.46669 7.50601 1.64869 7.25401 1.83002 6.96467C1.80602 7.25001 1.78936 7.58468 1.83002 7.68401C1.87602 7.78734 2.12336 7.46467 2.33869 7.10934C5.26869 6.43201 7.94202 8.45601 8.22269 11.316C8.16936 10.8693 7.61936 10.622 7.36736 10.684C7.24336 10.9893 7.03269 11.382 6.69402 11.626C6.72269 11.3527 6.71069 11.0727 6.65269 10.7993C6.56015 11.1798 6.38513 11.5353 6.14002 11.8407C5.74802 11.8693 5.35536 11.6793 5.14869 11.394C5.13202 11.382 5.12802 11.3573 5.11536 11.3407C5.10336 11.312 5.09069 11.2827 5.08202 11.254C5.07003 11.2263 5.06174 11.1972 5.05736 11.1673C5.05336 11.138 5.05336 11.1093 5.05336 11.076V11.014C5.05829 10.9847 5.0652 10.9557 5.07402 10.9273C5.08269 10.8987 5.09069 10.87 5.10336 10.8407C5.11936 10.812 5.13202 10.7827 5.15269 10.754C5.22269 10.5553 5.22269 10.394 5.09469 10.2993C5.06983 10.2831 5.04349 10.2693 5.01602 10.258C5.00002 10.254 4.97936 10.246 4.96269 10.2413L4.92936 10.2293C4.90106 10.2202 4.87208 10.2133 4.84269 10.2087C4.81453 10.2004 4.78536 10.1962 4.75602 10.196C4.72602 10.1913 4.69573 10.1886 4.66536 10.188C4.64469 10.188 4.62402 10.192 4.60336 10.192C4.57246 10.1918 4.54171 10.1961 4.51202 10.2047C4.48336 10.2087 4.45469 10.2127 4.42536 10.2207C4.39587 10.2286 4.36692 10.2384 4.33869 10.25C4.31002 10.262 4.28536 10.2747 4.25602 10.2873C4.23136 10.2993 4.20669 10.316 4.17736 10.3287C3.21469 10.9567 3.78936 12.4273 4.44602 12.8533C4.19802 12.8987 3.94602 12.952 3.87602 13.006L3.86736 13.014C4.04536 13.1213 4.23136 13.2127 4.42536 13.2913C4.69002 13.378 4.97069 13.456 5.09469 13.4893V13.4933C5.43705 13.5636 5.78714 13.5887 6.13602 13.568C7.96669 13.44 9.46669 12.0473 9.73936 10.2127L9.76402 10.32C9.77669 10.3947 9.79269 10.4733 9.80136 10.5513V10.5553C9.80936 10.5927 9.81336 10.63 9.81802 10.6633V10.6793C9.82202 10.7167 9.82602 10.754 9.82602 10.7873C9.83002 10.8327 9.83402 10.878 9.83402 10.9233V10.99C9.83402 11.01 9.83869 11.0347 9.83869 11.0553C9.83869 11.0807 9.83402 11.1053 9.83402 11.13V11.188C9.83402 11.2167 9.83002 11.2413 9.83002 11.2707C9.83002 11.2873 9.83002 11.304 9.82602 11.324C9.82602 11.3533 9.82202 11.382 9.82202 11.4153C9.81802 11.4273 9.81802 11.44 9.81802 11.452L9.80469 11.5473C9.80469 11.56 9.80469 11.572 9.80136 11.5847C9.79669 11.626 9.78869 11.6633 9.78469 11.7047V11.7127L9.76002 11.8287V11.8407L9.73536 11.952C9.73536 11.9567 9.73069 11.9653 9.73069 11.9687C9.72309 12.0065 9.71352 12.0439 9.70202 12.0807V12.0927C9.68936 12.134 9.67736 12.1713 9.66869 12.2087C9.66469 12.2127 9.66469 12.2167 9.66469 12.2167L9.62736 12.3407C9.61136 12.382 9.59869 12.4193 9.58202 12.4607C9.56536 12.502 9.55336 12.5433 9.53669 12.5807C9.52002 12.622 9.50336 12.6587 9.48736 12.7007H9.48269C9.46669 12.7373 9.44936 12.7787 9.42936 12.816C9.42589 12.8259 9.42165 12.8355 9.41669 12.8447C9.41269 12.8487 9.41269 12.8533 9.40869 12.8573C9.13541 13.4044 8.73765 13.8798 8.24736 14.2453C8.21402 14.266 8.18136 14.2913 8.14802 14.316C8.14002 14.324 8.12802 14.328 8.11936 14.336C8.08981 14.3579 8.05957 14.3788 8.02869 14.3987L8.04069 14.4233H8.04536L8.21869 14.3987H8.22269C8.33002 14.382 8.43736 14.3613 8.54469 14.3407C8.57402 14.3367 8.60669 14.328 8.63602 14.32L8.69402 14.3073C8.72269 14.3033 8.75136 14.2953 8.78069 14.2913C8.80536 14.2827 8.83002 14.278 8.85469 14.2707C9.26802 14.1707 9.66869 14.0347 10.0534 13.874C9.38925 14.7786 8.50601 15.4994 7.48669 15.9687C7.96269 15.9353 8.43736 15.8573 8.89602 15.7247C10.5562 15.2366 11.9583 14.1162 12.8007 12.6047C12.6306 13.5615 12.2511 14.4689 11.6894 15.262C12.0898 14.9978 12.4599 14.6902 12.7927 14.3447C13.7176 13.3791 14.3248 12.1535 14.5327 10.8327C14.6727 11.486 14.714 12.1593 14.6527 12.824C17.6354 8.66334 14.9 4.34934 13.7554 3.21334C13.7514 3.20468 13.7474 3.20068 13.7474 3.19268C13.7434 3.19668 13.7434 3.19668 13.7434 3.20068C13.7434 3.19668 13.7434 3.19668 13.7387 3.19268C13.7387 3.24201 13.7347 3.29134 13.7307 3.34134C13.7192 3.4339 13.7055 3.52615 13.6894 3.61801C13.6694 3.70868 13.644 3.80001 13.6194 3.89134C13.59 3.97801 13.5574 4.06868 13.5194 4.15534C13.4816 4.24093 13.4404 4.325 13.396 4.40734C13.3038 4.56932 13.1974 4.72281 13.078 4.86601C13.016 4.94001 12.95 5.00601 12.8834 5.07268C12.8444 5.1083 12.8044 5.14276 12.7634 5.17601L12.6687 5.25868C12.5949 5.31689 12.5177 5.37055 12.4374 5.41934C12.3584 5.4702 12.2769 5.51715 12.1934 5.56001C12.1067 5.60134 12.02 5.63868 11.9334 5.67601C11.7568 5.74315 11.5742 5.79294 11.388 5.82468C11.2927 5.84134 11.198 5.84934 11.1067 5.85801C11.0408 5.86267 10.9748 5.86534 10.9087 5.86601C10.8147 5.86471 10.7208 5.85915 10.6274 5.84934C10.533 5.84193 10.4392 5.82812 10.3467 5.80801C10.253 5.791 10.1605 5.76762 10.07 5.73801H10.0654C10.1567 5.72934 10.2474 5.72134 10.3387 5.70468C10.5247 5.67242 10.7073 5.62264 10.884 5.55601C10.9747 5.52268 11.0614 5.48134 11.144 5.44001C11.2307 5.39867 11.3094 5.35334 11.392 5.30401C11.4707 5.25068 11.5487 5.19668 11.6234 5.13868C11.698 5.08068 11.768 5.01867 11.834 4.95267C11.904 4.89068 11.966 4.82067 12.028 4.75001C12.09 4.67601 12.148 4.60134 12.2014 4.52734C12.21 4.51468 12.2187 4.49801 12.2267 4.48601C12.268 4.41934 12.3094 4.35334 12.3467 4.28734C12.4378 4.12289 12.5124 3.94982 12.5694 3.77068C12.5987 3.68401 12.6194 3.59334 12.64 3.50201C12.6567 3.40734 12.6734 3.31667 12.6814 3.22534C12.6894 3.13067 12.698 3.03534 12.698 2.94467C12.698 2.87801 12.6934 2.81201 12.6894 2.74601C12.6811 2.65346 12.67 2.5612 12.656 2.46934C12.64 2.3762 12.6195 2.28388 12.5947 2.19268C12.5654 2.10601 12.5367 2.01467 12.5034 1.92801C12.47 1.84134 12.4294 1.75467 12.388 1.67201C12.342 1.58934 12.2967 1.50668 12.2474 1.42801C12.1946 1.35078 12.1394 1.27518 12.082 1.20134C12.02 1.13067 11.958 1.06001 11.892 0.990008C11.8572 0.95454 11.8215 0.920081 11.7847 0.886675C11.598 0.742008 11.4047 0.606008 11.21 0.482008C11.1833 0.466586 11.1557 0.452784 11.1274 0.440675C11.0048 0.365631 10.8727 0.307335 10.7347 0.267342V0.266675Z" fill="#E0234E"/>
</svg>
