<svg width="16" height="16" viewBox="0 0 16 16" fill="none" xmlns="http://www.w3.org/2000/svg">
<path d="M9.48667 8.00267C9.48667 8.39791 9.32971 8.77696 9.0503 9.0565C8.77089 9.33603 8.3919 9.49316 7.99667 9.49334C7.60132 9.49334 7.22216 9.33629 6.94261 9.05673C6.66305 8.77718 6.506 8.39802 6.506 8.00267C6.506 7.60744 6.66296 7.22838 6.94237 6.94885C7.22178 6.66931 7.60077 6.51218 7.996 6.51201C8.39135 6.51201 8.77051 6.66906 9.05006 6.94861C9.32961 7.22817 9.48667 7.60732 9.48667 8.00267ZM11.252 0.876007C10.3547 0.876007 9.18067 1.51601 7.99333 2.62401C6.80667 1.52201 5.632 0.88934 4.73533 0.88934C4.462 0.88934 4.21333 0.95134 3.998 1.07467C3.08133 1.60334 2.876 3.25067 3.34933 5.31801C1.32 5.94467 0 6.94667 0 8.00267C0 9.06267 1.32667 10.0673 3.362 10.6893C2.89267 12.7647 3.102 14.4147 4.02067 14.9427C4.234 15.0673 4.48067 15.126 4.75533 15.126C5.652 15.126 6.82667 14.486 8.014 13.3767C9.20067 14.4793 10.3753 15.112 11.272 15.112C11.5453 15.112 11.794 15.052 12.0093 14.9287C12.9253 14.4007 13.1313 12.7533 12.658 10.6853C14.68 10.064 16 9.06001 16 8.00267C16 6.94267 14.6733 5.93801 12.638 5.31467C13.1073 3.24134 12.898 1.59001 11.9793 1.06134C11.7673 0.938674 11.5207 0.876674 11.2513 0.876007H11.252ZM11.2487 1.60267V1.60667C11.3987 1.60667 11.5193 1.63601 11.6207 1.69134C12.0647 1.94601 12.2573 2.91467 12.1073 4.16067C12.0713 4.46734 12.0127 4.79067 11.9407 5.12067C11.3007 4.96334 10.6033 4.84267 9.86933 4.76467C9.42933 4.16134 8.97267 3.61334 8.51267 3.13334C9.574 2.14667 10.5707 1.60534 11.2493 1.60334L11.2487 1.60267ZM4.73533 1.61601C5.41 1.61601 6.41133 2.15467 7.47533 3.13601C7.018 3.61601 6.562 4.16067 6.12867 4.76401C5.39067 4.84201 4.69267 4.96267 4.05333 5.12267C3.97867 4.79601 3.92333 4.48001 3.884 4.17601C3.73067 2.93067 3.92 1.96267 4.36 1.70467C4.48667 1.64467 4.62667 1.62001 4.73533 1.61667V1.61601ZM7.99 3.64934C8.29333 3.96134 8.59667 4.31067 8.89667 4.69201C8.60333 4.67867 8.30333 4.66934 8 4.66934C7.69333 4.66934 7.39 4.67601 7.09333 4.69201C7.38667 4.31067 7.69 3.96134 7.99 3.64867V3.64934ZM8 5.40001C8.49333 5.40001 8.98467 5.42267 9.468 5.46201C9.73867 5.85001 10.0027 6.26401 10.2567 6.70201C10.5047 7.12867 10.73 7.56201 10.9353 7.99934C10.73 8.43601 10.5047 8.87267 10.26 9.29934C10.0067 9.73934 9.74467 10.158 9.47333 10.546C8.988 10.588 8.496 10.6113 8 10.6113C7.50667 10.6113 7.01533 10.588 6.532 10.5493C6.26133 10.1613 5.99733 9.74667 5.74333 9.30934C5.49533 8.88267 5.27 8.44934 5.06467 8.01201C5.26667 7.57401 5.49533 7.13667 5.74 6.70934C5.99333 6.26934 6.25533 5.85201 6.52667 5.46401C7.012 5.42134 7.504 5.39867 8 5.39867V5.40001ZM5.57667 5.56934C5.41667 5.82067 5.25667 6.07801 5.10733 6.34267C4.95733 6.60267 4.81733 6.86401 4.684 7.12534C4.50733 6.68801 4.35733 6.25201 4.23333 5.82734C4.66 5.72734 5.11 5.63867 5.57667 5.57001V5.56934ZM10.4167 5.56934C10.88 5.63801 11.3267 5.72267 11.754 5.82734C11.634 6.24867 11.484 6.68201 11.314 7.11601C11.1807 6.85601 11.0407 6.59401 10.8873 6.33334C10.7373 6.07201 10.5773 5.81734 10.4173 5.56934H10.4167ZM12.4587 6.01934C12.7813 6.11934 13.088 6.23067 13.3753 6.35134C14.53 6.84467 15.2767 7.49001 15.2767 8.00201C15.2733 8.51401 14.5267 9.16201 13.372 9.65201C13.092 9.77201 12.7853 9.88001 12.4687 9.98067C12.282 9.34201 12.038 8.67667 11.7353 7.99401C12.0353 7.31601 12.2753 6.65401 12.4587 6.01801V6.01934ZM3.52867 6.02201C3.714 6.66201 3.95867 7.32667 4.262 8.00867C3.962 8.68667 3.72067 9.34867 3.538 9.98467C3.21533 9.88467 2.90867 9.77267 2.62467 9.65134C1.47 9.16001 0.723333 8.51401 0.723333 8.00201C0.723333 7.49001 1.47 6.84067 2.62467 6.35134C2.90467 6.23134 3.21133 6.12334 3.52867 6.02201ZM11.314 8.87534C11.4907 9.31334 11.6407 9.75001 11.7647 10.174C11.338 10.2787 10.8873 10.3673 10.4207 10.434C10.5807 10.184 10.7407 9.92601 10.8907 9.66201C11.0407 9.40201 11.1807 9.13667 11.3147 8.87534H11.314ZM4.684 8.88867C4.81733 9.15001 4.95733 9.41067 5.11067 9.67201C5.264 9.93201 5.42067 10.1867 5.58067 10.434C5.11733 10.366 4.67067 10.2807 4.24333 10.1767C4.36333 9.75667 4.514 9.32201 4.68333 8.88801L4.684 8.88867ZM11.9467 10.88C12.0213 11.2087 12.08 11.5253 12.116 11.8287C12.2693 13.074 12.08 14.042 11.64 14.3007C11.542 14.3607 11.4147 14.386 11.2647 14.386C10.59 14.386 9.58867 13.848 8.52467 12.866C8.982 12.386 9.438 11.842 9.87133 11.2393C10.6093 11.1607 11.3073 11.0393 11.9467 10.8793V10.88ZM4.06 10.8867C4.7 11.0427 5.39733 11.1633 6.13133 11.2413C6.57133 11.8447 7.028 12.3927 7.488 12.872C6.42467 13.8607 5.42667 14.402 4.748 14.402C4.60133 14.3987 4.47733 14.3687 4.37933 14.314C3.93533 14.0607 3.74267 13.0913 3.89267 11.8453C3.92867 11.5387 3.98733 11.216 4.05933 10.8867H4.06ZM7.1 11.3133C7.39333 11.3267 7.69333 11.336 7.99667 11.336C8.30333 11.336 8.60667 11.3293 8.90333 11.3133C8.61 11.6947 8.30667 12.0433 8.00667 12.3567C7.70333 12.0433 7.4 11.6947 7.1 11.3133Z" fill="#61DAFB"/>
</svg>
