<svg width="16" height="16" viewBox="0 0 16 16" fill="none" xmlns="http://www.w3.org/2000/svg">
<g clip-path="url(#clip0_812_5310)">
<path d="M8.00073 3.20001C5.8674 3.20001 4.53407 4.26668 4.00073 6.40001C4.80073 5.33335 5.73407 4.93335 6.80073 5.20001C7.4094 5.35201 7.84407 5.79335 8.32607 6.28268C9.11073 7.07868 10.0181 8.00001 12.0007 8.00001C14.1341 8.00001 15.4674 6.93335 16.0007 4.80001C15.2007 5.86668 14.2674 6.26668 13.2007 6.00001C12.5921 5.84801 12.1574 5.40668 11.6754 4.91735C10.8914 4.12135 9.98407 3.20001 8.00073 3.20001ZM4.00073 8.00001C1.8674 8.00001 0.534066 9.06668 0.000732422 11.2C0.800732 10.1333 1.73407 9.73335 2.80073 10C3.4094 10.152 3.84407 10.5933 4.32607 11.0827C5.11073 11.8787 6.01807 12.8 8.00073 12.8C10.1341 12.8 11.4674 11.7333 12.0007 9.60001C11.2007 10.6667 10.2674 11.0667 9.20073 10.8C8.59207 10.648 8.1574 10.2067 7.6754 9.71735C6.8914 8.92135 5.98407 8.00001 4.00073 8.00001Z" fill="#06B6D4"/>
</g>
<defs>
<clipPath id="clip0_812_5310">
<rect width="16" height="16" fill="white"/>
</clipPath>
</defs>
</svg>
