<svg width="24" height="24" viewBox="0 0 24 24" fill="none" xmlns="http://www.w3.org/2000/svg">
<path d="M16.5921 9.1962C16.5921 9.1962 16.2381 5.8982 12.9651 5.8062C9.69101 5.7162 8.00991 8.2802 8.00991 11.9462C8.00991 15.6113 9.86791 18.5434 13.055 18.5434C16.239 18.5434 16.5931 14.8784 16.5931 14.8784L22.6972 15.2434C22.6972 15.2434 23.0572 18.5534 20.5012 21.0794C17.9492 23.6035 14.8111 24.0165 12.625 23.9995C10.435 23.9825 7.39891 24.0335 4.46481 21.0295C1.52681 18.0194 1.02881 15.0993 1.02881 12.2293C1.02881 9.3592 1.58481 5.5591 5.07581 2.6791C7.44401 0.72 9.84901 0 12.254 0C22.2962 0 22.9712 9.2602 22.9712 9.2602L16.5921 9.1962Z" fill="#A8B9CC"/>
</svg>
