<svg width="16" height="16" viewBox="0 0 16 16" fill="none" xmlns="http://www.w3.org/2000/svg">
<g clip-path="url(#clip0_812_5307)">
<path d="M6.90276 14.0832C6.31635 14.2356 5.6973 14.2043 5.12922 13.9936C4.56114 13.783 4.07139 13.4031 3.7261 12.9052C3.51404 12.6085 3.36335 12.2725 3.28287 11.9168C3.20239 11.5611 3.19374 11.1929 3.25743 10.8339C3.27914 10.7159 3.30899 10.5997 3.34676 10.4859L3.41676 10.2719L3.6081 10.4119C4.04892 10.7357 4.54177 10.9819 5.06543 11.1399L5.2041 11.1819L5.19076 11.3205C5.17412 11.517 5.22749 11.713 5.34143 11.8739C5.44533 12.0239 5.59279 12.1384 5.76388 12.202C5.93497 12.2655 6.12144 12.275 6.2981 12.2292C6.37897 12.2077 6.45609 12.174 6.52676 12.1292L10.2534 9.75453C10.3445 9.69704 10.4225 9.62124 10.4827 9.53195C10.5428 9.44265 10.5837 9.34182 10.6028 9.23587C10.622 9.12762 10.6194 9.01663 10.5953 8.90938C10.5711 8.80214 10.5258 8.70077 10.4621 8.6112C10.3581 8.46122 10.2107 8.34675 10.0396 8.28321C9.86853 8.21967 9.68209 8.21012 9.50543 8.25587C9.42455 8.27734 9.34744 8.31106 9.27676 8.35587L7.85476 9.26253C7.62097 9.41134 7.3658 9.52352 7.0981 9.5952C6.51175 9.74763 5.89275 9.71648 5.32468 9.50594C4.7566 9.2954 4.26681 8.91561 3.92143 8.41787C3.70937 8.12107 3.55873 7.7849 3.47836 7.42909C3.39799 7.07328 3.38952 6.705 3.45343 6.34587C3.51662 5.99395 3.65254 5.65909 3.85251 5.36269C4.05248 5.06629 4.3121 4.81488 4.61476 4.62453L8.34076 2.2492C8.57453 2.10034 8.82971 1.98815 9.09743 1.91653C9.68384 1.76417 10.3029 1.79543 10.871 2.00609C11.4391 2.21675 11.9288 2.59667 12.2741 3.09453C12.4862 3.39121 12.6368 3.72725 12.7173 4.08293C12.7978 4.43862 12.8065 4.80679 12.7428 5.16587C12.721 5.28377 12.6911 5.40004 12.6534 5.51387L12.5834 5.72787L12.3928 5.58787C11.9518 5.26368 11.4587 5.01724 10.9348 4.8592L10.7961 4.8172L10.8094 4.6792C10.8261 4.48254 10.7728 4.28632 10.6588 4.1252C10.5548 3.97527 10.4073 3.86087 10.2362 3.79744C10.0651 3.73402 9.87869 3.72463 9.7021 3.77053C9.62122 3.79201 9.54411 3.82574 9.47343 3.87053L5.74676 6.2452C5.65569 6.30263 5.57758 6.37841 5.51744 6.46772C5.45729 6.55702 5.41642 6.65788 5.39743 6.76387C5.37816 6.87211 5.38067 6.98311 5.40483 7.09037C5.42898 7.19763 5.47429 7.299 5.5381 7.38853C5.64206 7.53851 5.78953 7.65299 5.9606 7.71653C6.13166 7.78007 6.3181 7.78961 6.49476 7.74387C6.57589 7.7222 6.65323 7.68825 6.7241 7.6432L8.14543 6.73653C8.37921 6.58786 8.63439 6.47589 8.9021 6.40453C9.48844 6.2521 10.1074 6.28325 10.6755 6.49379C11.2436 6.70433 11.7334 7.08412 12.0788 7.58187C12.2908 7.87866 12.4415 8.21483 12.5218 8.57064C12.6022 8.92645 12.6107 9.29473 12.5468 9.65387C12.4836 10.0059 12.3477 10.3408 12.1477 10.6373C11.9477 10.9338 11.6881 11.1854 11.3854 11.3759L7.65943 13.7505C7.42567 13.8994 7.17049 14.0116 6.90276 14.0832ZM13.8081 2.11653C12.3228 -0.0101334 9.3881 -0.640133 7.26676 0.711867L3.5401 3.08653C3.03683 3.40327 2.60518 3.82152 2.27274 4.31455C1.9403 4.80759 1.71439 5.36456 1.60943 5.94987C1.43162 6.93598 1.58786 7.95324 2.05343 8.84053C1.73432 9.32424 1.5166 9.86764 1.41343 10.4379C1.3074 11.035 1.32166 11.6472 1.45537 12.2387C1.58908 12.8302 1.83955 13.3891 2.1921 13.8825C3.6781 16.0092 6.6121 16.6392 8.73343 15.2879L12.4601 12.9132C12.9634 12.5965 13.3951 12.1783 13.7276 11.6852C14.06 11.1922 14.2859 10.6352 14.3908 10.0499C14.5686 9.06382 14.4126 8.04662 13.9474 7.1592C14.2661 6.67539 14.4833 6.132 14.5861 5.56187C14.6924 4.96471 14.6783 4.35234 14.5447 3.7607C14.4111 3.16906 14.1607 2.61007 13.8081 2.11653Z" fill="#FF3E00"/>
</g>
<defs>
<clipPath id="clip0_812_5307">
<rect width="16" height="16" fill="white"/>
</clipPath>
</defs>
</svg>
