<svg width="8" height="16" viewBox="0 0 8 16" fill="none" xmlns="http://www.w3.org/2000/svg">
<path d="M7.46196 6.37C6.61929 2.65 4.62729 1.42733 4.41329 0.96C4.22663 0.697333 4.05996 0.324 3.92329 0C3.89929 0.33 3.88663 0.456667 3.57463 0.789333C3.09263 1.16667 0.61596 3.244 0.414627 7.46933C0.226627 11.4107 3.26129 13.7593 3.67329 14.0587L3.71996 14.092C3.80575 14.7265 3.8791 15.3626 3.93996 16H4.26063C4.33663 15.312 4.44996 14.6293 4.60063 13.9533C4.87863 13.756 5.00329 13.6447 5.16729 13.4913C5.94393 12.7729 6.56115 11.8994 6.97904 10.9274C7.39693 9.95545 7.60619 8.90659 7.59329 7.84867C7.59996 7.306 7.52463 6.74067 7.46196 6.37ZM3.90463 11.8333C3.90463 11.8333 3.90463 6.306 4.08796 6.30667C4.22996 6.30667 4.41463 13.4367 4.41463 13.4367C4.16063 13.4067 3.90463 12.2633 3.90463 11.8333Z" fill="#47A248"/>
</svg>
