<svg width="16" height="16" viewBox="0 0 16 16" fill="none" xmlns="http://www.w3.org/2000/svg">
<g clip-path="url(#clip0_824_5541)">
<path d="M14.5692 0.943852C14.347 1.47675 14.0595 1.97996 13.7132 2.44192C12.9716 1.67512 12.0838 1.06483 11.1022 0.647141C10.1207 0.229454 9.06536 0.0128551 7.99864 0.0101574C6.93193 0.00745959 5.8755 0.218717 4.89186 0.631435C3.90821 1.04415 3.01733 1.64995 2.2719 2.41298C1.52647 3.17602 0.941635 4.0808 0.551991 5.07381C0.162347 6.06682 -0.0241941 7.12789 0.00340277 8.19426C0.0309996 9.26062 0.272173 10.3106 0.712659 11.2821C1.15314 12.2537 1.78399 13.127 2.56789 13.8505L2.86423 14.1139C3.98874 15.0622 5.3538 15.6809 6.80823 15.9012C8.26267 16.1216 9.74972 15.9352 11.1047 15.3625C12.4597 14.7898 13.6297 13.8533 14.4853 12.6566C15.3408 11.46 15.8484 10.0498 15.952 8.58245C16.1824 6.57405 15.5733 4.00585 14.5691 0.943785L14.5692 0.943852ZM3.72036 13.9163C3.63572 14.0203 3.52214 14.0969 3.39398 14.1364C3.26582 14.1759 3.12883 14.1765 3.00033 14.1382C2.87182 14.0998 2.75757 14.0242 2.67201 13.921C2.58644 13.8177 2.53341 13.6914 2.51961 13.558C2.50581 13.4246 2.53186 13.2901 2.59446 13.1715C2.65707 13.053 2.75343 12.9556 2.87136 12.8917C2.98929 12.8279 3.1235 12.8004 3.25703 12.8129C3.39056 12.8253 3.51741 12.877 3.62156 12.9615C3.7581 13.0771 3.84463 13.241 3.86304 13.419C3.88146 13.597 3.83033 13.7752 3.72036 13.9163ZM14.5198 11.5293C12.5608 14.1468 8.34636 13.2578 5.66296 13.3895C5.66296 13.3895 5.18556 13.4225 4.70809 13.4883C4.70809 13.4883 4.88923 13.406 5.11969 13.3237C7.01289 12.6652 7.90183 12.5335 9.05423 11.9408C11.2108 10.8378 13.3674 8.41785 13.7954 5.91552C12.9723 8.31905 10.47 10.3933 8.19816 11.2329C6.63423 11.8091 3.81916 12.3689 3.81916 12.3689L3.70389 12.303C1.79423 11.3646 1.72843 7.21605 5.21843 5.88259C6.74949 5.28992 8.19816 5.61925 9.86089 5.22412C11.6224 4.81252 13.6638 3.49552 14.4869 1.76699C15.4088 4.54912 16.5282 8.86232 14.5198 11.5293Z" fill="#6DB33F"/>
</g>
<defs>
<clipPath id="clip0_824_5541">
<rect width="16" height="16" fill="white"/>
</clipPath>
</defs>
</svg>
