<svg width="16" height="16" viewBox="0 0 16 16" fill="none" xmlns="http://www.w3.org/2000/svg">
<path d="M8 0C3.6 0 0 3.6 0 8C0 12.4 3.6 16 8 16C12.4 16 16 12.4 16 8C16 3.6 12.4 0 8 0ZM8 1.714C10.114 1.714 11.9433 2.74267 13.086 4.286L12.2287 5.02933C11.2573 3.71467 9.714 2.85733 8 2.85733C5.77133 2.85733 3.886 4.286 3.14267 6.286L9.714 12.8573C11.3713 12.286 12.6293 10.8573 13.0293 9.14267H10.286V8H14.286C14.286 10.9713 12.1713 13.4853 9.37133 14.1133L1.88667 6.62933C2.51467 3.82867 5.02867 1.71333 8 1.71333V1.714ZM1.714 8.114L7.94333 14.286C6.34333 14.2287 4.74267 13.6573 3.54267 12.4573C2.34267 11.2573 1.714 9.65667 1.714 8.114Z" fill="#663399"/>
</svg>
