<svg width="24" height="24" viewBox="0 0 24 24" fill="none" xmlns="http://www.w3.org/2000/svg">
<g clip-path="url(#clip0_944_1875)">
<path d="M22.3939 6.00001C22.2269 5.71001 21.9959 5.45701 21.7419 5.31001L12.9259 0.220012C12.4169 -0.0739883 11.5859 -0.0739883 11.0779 0.220012L2.25991 5.31001C1.75191 5.60301 1.33691 6.32301 1.33691 6.91001V17.09C1.33691 17.384 1.44091 17.71 1.60791 18C1.77491 18.29 2.00591 18.543 2.25991 18.69L11.0759 23.78C11.5839 24.073 12.4159 24.073 12.9239 23.78L21.7399 18.69C21.9939 18.543 22.2249 18.29 22.3919 18C22.5589 17.71 22.6619 17.384 22.6619 17.09V6.91001C22.6649 6.61601 22.5619 6.29001 22.3939 6.00001ZM11.9999 19.11C8.07991 19.11 4.89091 15.92 4.89091 12C4.89091 8.08001 8.08091 4.89001 12.0009 4.89001C13.2481 4.89238 14.4728 5.2217 15.553 5.84513C16.6331 6.46856 17.531 7.3643 18.1569 8.44301L15.0809 10.223C14.7682 9.68275 14.3191 9.23401 13.7786 8.92166C13.2382 8.6093 12.6252 8.44425 12.0009 8.44301C11.0578 8.44381 10.1535 8.81882 9.48661 9.48571C8.81972 10.1526 8.44471 11.0569 8.44391 12C8.44524 12.9426 8.82034 13.8462 9.48696 14.5127C10.1536 15.1791 11.0573 15.554 11.9999 15.555C12.6239 15.5537 13.2367 15.3888 13.7771 15.0768C14.3175 14.7649 14.7667 14.3167 15.0799 13.777L18.1579 15.557C17.5317 16.6359 16.6335 17.5317 15.553 18.1551C14.4725 18.7785 13.2474 19.1078 11.9999 19.11ZM19.1099 12.395H18.3199V13.185H17.5299V12.395H16.7399V11.605H17.5299V10.815H18.3199V11.605H19.1099V12.395ZM22.0719 12.395H21.2819V13.185H20.4919V12.395H19.7019V11.605H20.4919V10.815H21.2819V11.605H22.0719V12.395Z" fill="#00599C"/>
</g>
<defs>
<clipPath id="clip0_944_1875">
<rect width="24" height="24" fill="white"/>
</clipPath>
</defs>
</svg>
