<svg width="16" height="16" viewBox="0 0 16 16" fill="none" xmlns="http://www.w3.org/2000/svg">
<path d="M15.7062 9.8152C15.6971 9.78727 15.6844 9.76059 15.6687 9.7358C15.576 9.56033 15.3508 9.50793 14.9971 9.58107C13.8949 9.80847 13.4681 9.66853 13.3133 9.56833C14.208 8.20287 14.9433 6.55367 15.3407 5.0152C15.5217 4.31473 15.8729 2.66607 15.4222 1.8608C15.3934 1.80568 15.3597 1.75325 15.3216 1.70413C14.462 0.605734 13.2004 0.0165343 11.6732 0.000334269C10.6767 -0.0101991 9.8262 0.231068 9.5958 0.319934C9.48168 0.298635 9.36699 0.280495 9.25187 0.265534C8.96326 0.213274 8.67086 0.184779 8.3776 0.180334C7.58947 0.168068 6.9084 0.356468 6.3444 0.740734C5.77287 0.526668 3.15187 -0.355932 1.5298 0.793268C0.623867 1.43507 0.205667 2.5822 0.286734 4.20287C0.314 4.7482 0.624667 6.42553 1.11493 8.03193C1.42147 9.03627 1.74073 9.8332 2.07053 10.4199C2.4392 11.0827 2.82113 11.4821 3.2134 11.6129C3.51167 11.7123 3.96853 11.709 4.45213 11.1277C4.98627 10.4853 5.51233 9.91047 5.74853 9.6564C6.0386 9.8134 6.3528 9.89807 6.6752 9.90787C6.67526 9.90878 6.67534 9.90969 6.67547 9.9106C6.61933 9.97748 6.56439 10.0454 6.51067 10.1142C6.28473 10.401 6.23773 10.4607 5.51053 10.6104C5.30373 10.6531 4.75427 10.7663 4.74627 11.1514C4.7446 11.233 4.7682 11.3053 4.80753 11.3693C4.9588 11.6513 5.42193 11.7757 5.4842 11.7913C6.37387 12.0137 7.1538 11.8527 7.7318 11.3389C7.72047 12.8262 7.78347 14.2838 7.96207 14.7305C8.10953 15.0991 8.46993 16.0001 9.6082 16C9.7752 16 9.95907 15.9806 10.1613 15.9373C11.3492 15.6825 11.8651 15.1575 12.0646 14C12.1648 13.4195 12.3323 12.0831 12.4238 11.2659C12.4351 11.219 12.4476 11.1854 12.4618 11.1751C12.4623 11.1747 12.5083 11.1437 12.7466 11.1955C12.7563 11.1976 12.7662 11.1992 12.7761 11.2001L12.9454 11.2149L12.9553 11.2156C13.5199 11.2412 14.2296 11.1205 14.6428 10.9284C15.072 10.7292 15.8466 10.2402 15.7062 9.8152ZM1.5806 7.91767C1.08493 6.2938 0.795334 4.66093 0.7724 4.20307C0.7 2.75547 1.05047 1.7478 1.81393 1.20793C3.0384 0.342201 5.04047 0.847401 5.88593 1.12127C5.8838 1.1234 5.88153 1.12533 5.8794 1.12753C4.5302 2.4902 4.5622 4.8182 4.56553 4.96053C4.5654 5.0154 4.56993 5.09313 4.57633 5.20007C4.59953 5.5916 4.64273 6.32033 4.52733 7.14567C4.42007 7.9126 4.65647 8.66327 5.17587 9.20513C5.2296 9.2612 5.28573 9.31387 5.34373 9.3634C5.11253 9.611 4.61013 10.1585 4.0754 10.8018C3.69693 11.2568 3.4356 11.1696 3.34967 11.1409C3.0884 11.0538 2.80767 10.7495 2.52427 10.2594C2.20453 9.70007 1.88193 8.90493 1.5806 7.91767ZM5.5854 11.3091C5.47133 11.2805 5.36733 11.2336 5.29727 11.1909C5.35653 11.1647 5.45553 11.1308 5.61947 11.097C6.475 10.9209 6.60713 10.7966 6.89567 10.4302C6.9618 10.3462 7.03673 10.2511 7.14053 10.1351C7.16286 10.1101 7.17961 10.0806 7.18967 10.0486C7.30353 9.94773 7.37127 9.97533 7.48093 10.0208C7.58493 10.0639 7.68613 10.1941 7.72727 10.3376C7.74667 10.4053 7.76853 10.5339 7.69713 10.6339C7.09427 11.4777 6.21607 11.4668 5.5854 11.3091ZM6.9814 8.6504L6.9464 8.7444C6.85773 8.98213 6.77527 9.20313 6.72413 9.41307C6.2792 9.41167 5.84627 9.2216 5.51713 8.87813C5.09853 8.4414 4.9084 7.83387 4.99547 7.2112C5.11733 6.33927 5.07233 5.58 5.04813 5.17213C5.0448 5.115 5.0418 5.065 5.04 5.02553C5.23713 4.8508 6.1506 4.3614 6.80193 4.5106C7.0992 4.57873 7.28033 4.78107 7.3556 5.12927C7.74533 6.9318 7.4072 7.68307 7.13547 8.2868C7.07947 8.4112 7.0266 8.52873 6.9814 8.6504ZM11.8905 11.6987C11.8793 11.8166 11.8667 11.9494 11.8493 12.096L11.752 12.3882C11.7443 12.4114 11.7402 12.4356 11.7399 12.46C11.7359 12.7765 11.7039 12.8926 11.6632 13.0395C11.6209 13.1923 11.573 13.3656 11.5436 13.7445C11.4703 14.6874 10.9581 15.229 9.93213 15.4489C8.9218 15.6656 8.7426 15.1177 8.58467 14.6344C8.56849 14.5837 8.5514 14.5334 8.5334 14.4833C8.3898 14.0928 8.406 13.5421 8.42847 12.7799C8.43947 12.4058 8.41187 11.5124 8.20833 11.0158C8.21127 10.8203 8.2154 10.6219 8.221 10.4213C8.22168 10.3959 8.21823 10.3705 8.2108 10.3462C8.20435 10.2993 8.19457 10.253 8.18153 10.2075C8.0998 9.922 7.90067 9.68313 7.66173 9.58413C7.5668 9.5448 7.39253 9.47267 7.1832 9.5262C7.22787 9.3422 7.30527 9.13453 7.3892 8.9096L7.42447 8.81493C7.46413 8.70827 7.5138 8.5978 7.56647 8.4808C7.8508 7.84907 8.2402 6.98393 7.81753 5.02933C7.65927 4.29727 7.1306 3.9398 6.32927 4.0228C5.8488 4.07253 5.40933 4.2664 5.19007 4.37753C5.14611 4.39981 5.10259 4.42295 5.05953 4.44693C5.12073 3.70933 5.35193 2.33087 6.21667 1.45873C6.2809 1.39401 6.34839 1.3326 6.41887 1.27473C6.45386 1.26791 6.48684 1.25323 6.51533 1.2318C7.01693 0.851401 7.645 0.664734 8.38333 0.676801C8.65607 0.681268 8.9178 0.699401 9.16613 0.730801C10.4588 0.967068 11.3287 1.69533 11.8567 2.31927C12.3996 2.9608 12.6935 3.60693 12.8109 3.95547C11.9287 3.86573 11.3286 4.04 11.0244 4.4748C10.3627 5.42073 11.3864 7.25673 11.8785 8.13907C11.9687 8.3008 12.0466 8.44053 12.0711 8.49993C12.2313 8.88827 12.4387 9.14747 12.5902 9.33673C12.6366 9.39473 12.6817 9.451 12.7159 9.50007C12.4487 9.57707 11.9687 9.75507 12.0124 10.6447C12.0042 10.7489 11.9842 10.9427 11.9568 11.1879C11.9261 11.3264 11.91 11.4948 11.8905 11.6987ZM12.4842 10.618C12.4572 10.0636 12.6636 10.0057 12.882 9.94433C12.9122 9.93605 12.9422 9.92703 12.972 9.91727C13.0002 9.94223 13.0301 9.96517 13.0615 9.98593C13.4417 10.2369 14.1163 10.2668 15.066 10.0755C14.9316 10.1935 14.7201 10.3418 14.4305 10.4763C14.1573 10.6031 13.7 10.6983 13.2656 10.7187C12.7858 10.7411 12.5417 10.6649 12.4842 10.618ZM12.8639 4.4372C12.8599 4.67107 12.8277 4.88333 12.7936 5.105C12.7569 5.3434 12.7189 5.58993 12.7093 5.88913C12.6999 6.18033 12.7363 6.48307 12.7715 6.77587C12.8425 7.3672 12.9155 7.97607 12.6331 8.5768C12.5863 8.49373 12.5445 8.40788 12.5081 8.31973C12.4729 8.23467 12.3968 8.098 12.2913 7.90893C11.8809 7.17287 10.9197 5.4492 11.4118 4.74587C11.6648 4.38407 12.3057 4.36847 12.8639 4.4372ZM13.0161 9.113C12.9973 9.08903 12.9784 9.06516 12.9593 9.0414L12.9356 9.0118C13.4197 8.21213 13.3251 7.421 13.2408 6.71947C13.2062 6.4316 13.1735 6.15973 13.1818 5.9044C13.1904 5.63367 13.2262 5.40153 13.2608 5.177C13.3034 4.90033 13.3467 4.61413 13.3347 4.27667C13.3437 4.24127 13.3473 4.19947 13.3426 4.14987C13.3121 3.8262 12.9427 2.85787 12.1897 1.9812C11.7846 1.50967 11.1966 0.983068 10.3971 0.621534C10.7471 0.550468 11.2189 0.485868 11.7467 0.497601C13.1143 0.528001 14.1964 1.03993 14.9628 2.0192C14.9791 2.04046 14.9939 2.06278 15.0073 2.086C15.4893 2.98973 14.8231 6.2694 13.0161 9.113ZM7.1384 5.03553C7.12173 5.15513 6.93247 5.3172 6.72433 5.3172C6.70629 5.31721 6.68827 5.31596 6.6704 5.31347C6.54553 5.29613 6.4194 5.21747 6.33313 5.10307C6.3026 5.06273 6.25293 4.9844 6.2628 4.91347C6.26647 4.88673 6.2802 4.8478 6.32447 4.81427C6.40327 4.75467 6.559 4.73253 6.73087 4.75647C6.94173 4.78587 7.15927 4.88567 7.1384 5.03553ZM12.4254 4.76127C12.4328 4.81407 12.3927 4.89527 12.3233 4.96807C12.2778 5.01587 12.182 5.0988 12.0514 5.11687C12.0348 5.11917 12.0181 5.12033 12.0014 5.12033C11.8057 5.12033 11.6405 4.96407 11.6276 4.87253C11.6116 4.75487 11.8037 4.66547 12.0017 4.63787C12.1997 4.61027 12.4091 4.64373 12.4254 4.76127Z" fill="#4169E1"/>
</svg>
