<svg width="16" height="16" viewBox="0 0 16 16" fill="none" xmlns="http://www.w3.org/2000/svg">
<g clip-path="url(#clip0_776_1110)">
<path d="M7.99926 0C7.86859 0 7.73792 0.0333333 7.62059 0.102L1.35059 3.72C1.23549 3.78637 1.1399 3.88188 1.07343 3.99692C1.00696 4.11196 0.97195 4.24247 0.971924 4.37533V11.62C0.971924 11.8907 1.11592 12.1407 1.35059 12.276L5.20859 14.5053V9.60933H3.16526V8.314H8.72659V9.60933H6.68326V15.3573L7.62059 15.8987C7.85459 16.034 8.14326 16.034 8.37792 15.8987L9.92259 15.0067C9.58633 14.76 9.31331 14.4372 9.12592 14.0647L10.3266 13.37C10.5673 13.7633 10.8639 14.0767 11.3133 14.2033L12.7626 13.366C12.6779 12.9873 12.2973 12.8173 11.7066 12.5593L11.3379 12.4007C10.2739 11.9473 9.56792 11.3793 9.56792 10.178C9.56792 9.07267 10.4113 8.23 11.7279 8.23C12.6653 8.23 13.3393 8.55667 13.8239 9.41L12.6753 10.1467C12.4226 9.69333 12.1486 9.51467 11.7279 9.51467C11.2959 9.51467 11.0213 9.788 11.0213 10.1467C11.0213 10.5887 11.2959 10.768 11.9279 11.042L12.2966 11.2C13.1873 11.582 13.7999 11.97 14.0806 12.6047L14.6493 12.276C14.8839 12.1407 15.0279 11.8907 15.0279 11.62V4.37667C15.0279 4.106 14.8839 3.85533 14.6493 3.72067L8.37792 0.102C8.26287 0.035284 8.13225 0.000100236 7.99926 0V0Z" fill="#3178C6"/>
</g>
<defs>
<clipPath id="clip0_776_1110">
<rect width="16" height="16" fill="white"/>
</clipPath>
</defs>
</svg>
