<svg width="16" height="16" viewBox="0 0 16 16" fill="none" xmlns="http://www.w3.org/2000/svg">
<path d="M7.99861 15.9999C7.78461 15.9999 7.57127 15.9439 7.38394 15.8353L5.42661 14.6773C5.13461 14.5139 5.27727 14.4559 5.37327 14.4219C5.76327 14.2866 5.84194 14.2553 6.25861 14.0193C6.30194 13.9946 6.35927 14.0039 6.40394 14.0306L7.90794 14.9233C7.96261 14.9533 8.03927 14.9533 8.08927 14.9233L13.9526 11.5393C14.0073 11.5079 14.0419 11.4453 14.0419 11.3806V4.61392C14.0419 4.54792 14.0066 4.48592 13.9506 4.45259L8.08994 1.07126C8.03594 1.03992 7.96394 1.03992 7.90927 1.07126L2.04994 4.45326C1.99327 4.48592 1.95727 4.54992 1.95727 4.61392V11.3806C1.95727 11.4453 1.99327 11.5066 2.04994 11.5373L3.65594 12.4653C4.52727 12.9013 5.06127 12.3879 5.06127 11.8719V5.19126C5.06127 5.09659 5.13727 5.02259 5.23194 5.02259H5.97527C6.06794 5.02259 6.14527 5.09726 6.14527 5.19126V11.8719C6.14527 13.0353 5.51194 13.7019 4.40927 13.7019C4.07061 13.7019 3.80327 13.7019 3.05861 13.3346L1.51994 12.4499C1.13994 12.2306 0.905273 11.8199 0.905273 11.3806V4.61392C0.905273 4.17459 1.14061 3.76392 1.51994 3.54526L7.38327 0.157256C7.75461 -0.0527441 8.24727 -0.0527441 8.61527 0.157256L14.4779 3.54526C14.8579 3.76459 15.0939 4.17459 15.0939 4.61392V11.3806C15.0939 11.8199 14.8579 12.2293 14.4779 12.4499L8.61527 15.8353C8.42861 15.9439 8.21594 15.9999 7.99861 15.9999ZM12.7326 9.32859C12.7326 8.06192 11.8766 7.72459 10.0746 7.48659C8.25394 7.24592 8.06861 7.12126 8.06861 6.69526C8.06861 6.34326 8.22527 5.87326 9.57394 5.87326C10.7786 5.87326 11.2226 6.13259 11.4053 6.94459C11.4213 7.02126 11.4913 7.07726 11.5699 7.07726H12.3306C12.3779 7.07726 12.4226 7.05659 12.4546 7.02326C12.4866 6.98726 12.5039 6.94126 12.4993 6.89259C12.3813 5.49392 11.4519 4.84192 9.57394 4.84192C7.90194 4.84192 6.90461 5.54726 6.90461 6.73059C6.90461 8.01392 7.89661 8.36859 9.50127 8.52726C11.4213 8.71526 11.5699 8.99592 11.5699 9.37326C11.5699 10.0286 11.0439 10.3079 9.80861 10.3079C8.25727 10.3079 7.91594 9.91859 7.80127 9.14659C7.78794 9.06392 7.71727 9.00325 7.63261 9.00325H6.87461C6.78061 9.00325 6.70527 9.07792 6.70527 9.17192C6.70527 10.1599 7.24261 11.3373 9.80861 11.3373C11.6673 11.3379 12.7326 10.6066 12.7326 9.32859Z" fill="#339933"/>
</svg>
