<svg width="16" height="16" viewBox="0 0 16 16" fill="none" xmlns="http://www.w3.org/2000/svg">
<g clip-path="url(#clip0_824_5550)">
<path d="M2.46646 11.0315L1.6295 11.4141L1.58496 14.5287L4.48209 13.2047C3.48757 12.788 2.76229 12.0536 2.46646 11.0315Z" fill="#FDBD39"/>
<path d="M2.90444 7.73718L0 9.06456L1.62938 11.4149L2.46635 11.0323C2.17118 10.0135 2.35333 8.86329 2.90444 7.73718Z" fill="#F69833"/>
<path d="M7.79131 3.24193C4.09312 4.93192 1.70854 8.42002 2.46639 11.0315L15.8584 4.91113C15.1006 2.29963 11.4895 1.55194 7.79131 3.24193Z" fill="#FECF33"/>
<path d="M10.5327 12.7015C14.2309 11.0115 16.6195 7.53923 15.8576 4.91193L2.46558 11.0315C3.22742 13.6596 6.83453 14.3915 10.5327 12.7015Z" fill="#EE6723"/>
<path d="M15.8577 4.91113L2.46631 11.0315C2.72823 11.9364 3.72873 12.3822 5.13142 12.3822C6.49955 12.3822 8.25059 11.9589 10.0761 11.1247C13.7743 9.43468 16.3756 6.6976 15.8577 4.91113Z" fill="#F69833"/>
<path d="M13.1926 3.56128C11.8251 3.56128 10.0734 3.98461 8.24794 4.81879C4.54976 6.50878 1.94846 9.24503 2.46633 11.0315L15.8584 4.91111C15.5958 4.00623 14.596 3.56128 13.1926 3.56128Z" fill="#FDBD39"/>
<path d="M12.4528 14.6942C12.0585 14.6942 11.4775 14.2493 10.725 13.371C9.83485 12.3323 8.81573 10.8103 7.85379 9.08618C6.89252 7.36209 6.10275 5.63883 5.62943 4.23245C5.11422 2.70048 5.04043 1.75901 5.41071 1.43299C5.49647 1.3598 5.59818 1.32238 5.70189 1.3257C6.00304 1.3257 6.5907 1.60598 7.67629 2.94334L7.70023 2.97245L7.6969 3.01403C7.68959 3.11051 7.68294 3.20698 7.67696 3.30263L7.66499 3.49142L7.55863 3.35752C6.38861 1.88294 5.87407 1.72408 5.70654 1.72408C5.65868 1.72408 5.62079 1.73573 5.59353 1.75985C5.43265 1.90123 5.42202 2.5932 5.92193 4.07776C6.38662 5.45836 7.16508 7.15583 8.11372 8.85746C9.06303 10.5599 10.0669 12.0586 10.9417 13.0791C11.8844 14.1794 12.3092 14.2984 12.4481 14.2984C12.496 14.2984 12.5345 14.2859 12.5638 14.2601C12.7333 14.1112 12.7333 13.3702 12.1762 11.7717L12.1503 11.6985L12.2061 11.6603C12.262 11.622 12.3165 11.5846 12.367 11.548L12.4341 11.5006L12.4654 11.5887C12.8603 12.7215 13.2299 14.1611 12.7453 14.587C12.6595 14.6601 12.5571 14.6976 12.4528 14.6942ZM12.4528 14.5196V14.6069V14.5196Z" fill="#EE6723"/>
<path d="M10.6226 12.6533L10.6173 12.7398C10.5236 14.1869 10.2776 15.9268 9.63544 15.9975C9.62215 15.9991 9.60885 15.9991 9.59622 15.9991C9.16012 15.9991 8.74729 15.2174 8.37036 13.6762C8.01271 12.2175 7.73549 10.2597 7.5899 8.16299C7.44365 6.0663 7.44565 4.07774 7.59589 2.56324C7.75942 0.91317 8.07054 0.0515418 8.52126 0.00164057C8.53456 -2.28048e-05 8.54852 -0.000854492 8.56182 -0.000854492C8.87825 -0.000854492 9.3549 0.447425 9.84285 2.53496L9.52442 2.61148C9.36155 1.91452 9.18405 1.34731 9.00789 0.956418C8.84501 0.596297 8.68613 0.397524 8.56182 0.397524C8.55783 0.397524 8.55384 0.397524 8.54919 0.398355C8.35374 0.419979 8.06921 1.01214 7.91099 2.61231C7.76341 4.09936 7.76142 6.05882 7.90567 8.12806C8.04993 10.1981 8.32249 12.1268 8.6735 13.559C8.83039 14.2002 9.00257 14.7292 9.17209 15.0876C9.32765 15.4186 9.47855 15.6008 9.59622 15.6008C9.60021 15.6008 9.6042 15.6008 9.60819 15.5999C9.79499 15.58 10.1473 14.9629 10.2956 12.793L10.6226 12.6533Z" fill="#EE6723"/>
</g>
<defs>
<clipPath id="clip0_824_5550">
<rect width="16" height="16" fill="white"/>
</clipPath>
</defs>
</svg>
