<svg width="16" height="16" viewBox="0 0 16 16" fill="none" xmlns="http://www.w3.org/2000/svg">
<g clip-path="url(#clip0_824_5544)">
<path d="M2.59336 10.4479L4.17003 0.307189C4.18134 0.231967 4.21609 0.162233 4.26935 0.107922C4.32261 0.0536099 4.39165 0.0174907 4.46663 0.00470999C4.54162 -0.00807074 4.61872 0.00313892 4.68697 0.036742C4.75521 0.070345 4.81111 0.124627 4.84669 0.191855L6.54203 3.37252L2.59336 10.4479ZM13.7894 12.9092L12.2894 3.57586C12.2791 3.5099 12.2507 3.4481 12.2073 3.39736C12.1639 3.34662 12.1073 3.30895 12.0437 3.28854C11.9801 3.26814 11.9121 3.26581 11.8473 3.28182C11.7825 3.29783 11.7234 3.33154 11.6767 3.37919L2.21069 12.9099L7.44803 15.8612C7.60967 15.952 7.79195 15.9997 7.97736 15.9997C8.16277 15.9997 8.34505 15.952 8.50669 15.8612L13.7894 12.9092ZM9.53336 4.76452L8.32003 2.44319C8.28941 2.38481 8.24341 2.33592 8.18701 2.30181C8.13061 2.2677 8.06594 2.24967 8.00003 2.24967C7.93411 2.24967 7.86945 2.2677 7.81305 2.30181C7.75664 2.33592 7.71064 2.38481 7.68003 2.44319L2.35336 11.9892L9.53336 4.76452Z" fill="#FFCA28"/>
</g>
<defs>
<clipPath id="clip0_824_5544">
<rect width="16" height="16" fill="white"/>
</clipPath>
</defs>
</svg>
