<svg width="16" height="10" viewBox="0 0 16 10" fill="none" xmlns="http://www.w3.org/2000/svg">
<path d="M16 9.39199C15.7671 9.48007 15.5101 9.47988 15.2774 9.39145C15.0446 9.30302 14.8523 9.13248 14.7367 8.91199L12.4367 5.73133L12.1033 5.28666L9.43468 8.91599C9.326 9.12723 9.14411 9.29165 8.92301 9.37852C8.70191 9.46539 8.45674 9.46876 8.23334 9.38799L11.672 4.77466L8.47334 0.607328C8.70334 0.524445 8.95487 0.523346 9.18558 0.604217C9.4163 0.685087 9.61209 0.842988 9.74001 1.05133L12.124 4.27133L14.5213 1.06466C14.6309 0.857186 14.8128 0.697187 15.0326 0.615081C15.2523 0.532974 15.4946 0.534486 15.7133 0.619328L14.472 2.26666L12.7907 4.45533C12.744 4.49698 12.7066 4.54803 12.681 4.60513C12.6555 4.66223 12.6422 4.72409 12.6422 4.78666C12.6422 4.84923 12.6555 4.91109 12.681 4.96819C12.7066 5.0253 12.744 5.07634 12.7907 5.11799L15.9933 9.39266L16 9.39199ZM0.00134133 4.71733L0.281341 3.334C1.05067 0.598662 4.18668 -0.539338 6.34401 1.154C7.60734 2.14666 7.92268 3.552 7.86068 5.136H0.744008C0.628675 7.96466 2.67001 9.67266 5.28001 8.79999C5.70311 8.64769 6.08184 8.39282 6.38225 8.0582C6.68266 7.72359 6.89537 7.31968 7.00134 6.88266C7.13934 6.43866 7.36667 6.36266 7.78401 6.49066C7.71446 7.03225 7.52301 7.55102 7.22406 8.00794C6.9251 8.46486 6.52642 8.84805 6.05801 9.12866C5.28429 9.55188 4.39656 9.71962 3.52176 9.60791C2.64696 9.49619 1.82987 9.11074 1.18734 8.50666C0.552028 7.79159 0.168059 6.88832 0.094008 5.93466C0.094008 5.778 0.0406747 5.63133 0.00467466 5.49066C0.00142935 5.23312 -0.000126238 4.97556 7.99752e-06 4.71799L0.00134133 4.71733ZM0.752675 4.52666H7.18867C7.14867 2.476 5.85467 1.02133 4.12867 1.008C2.20734 0.981328 0.832675 2.404 0.748008 4.51733L0.752675 4.52666Z" fill="black"/>
</svg>
