<svg width="24" height="24" viewBox="0 0 24 24" fill="none" xmlns="http://www.w3.org/2000/svg">
<path d="M12 2.74597C5.373 2.74597 0 6.34497 0 10.783C0 14.68 4.144 17.927 9.64 18.663V16.26C6.716 15.345 4.715 13.505 4.715 11.383C4.715 8.34797 8.799 5.88897 13.835 5.88897C18.873 5.88897 22.592 7.57197 22.592 11.383C22.592 13.359 21.593 14.762 19.93 15.655C20.02 15.721 20.104 15.783 20.188 15.871C20.357 16.02 20.438 16.234 20.56 16.415C22.688 14.965 24 12.978 24 10.784C24 6.34397 18.627 2.74597 12 2.74597ZM9.889 7.73597V21.252L13.982 21.25L13.98 15.959H15.08C15.305 15.959 15.401 16.025 15.629 16.209C15.901 16.429 16.344 17.191 16.344 17.191L18.508 21.254L23.135 21.252L20.271 16.426C20.271 16.426 20.185 16.233 20.006 16.043C19.8358 15.8738 19.6392 15.7333 19.424 15.627C19.002 15.413 18.275 15.193 18.275 15.193C18.275 15.193 21.853 14.929 21.853 11.367C21.853 7.80497 18.109 7.73697 18.109 7.73697L9.889 7.73597ZM14.016 10.666L16.494 10.668C16.494 10.668 17.643 10.606 17.643 11.795C17.643 12.96 16.494 12.965 16.494 12.965H14.016V10.666ZM15.77 16.785C15.276 16.834 14.758 16.864 14.23 16.873V18.68C15.0304 18.58 15.8225 18.4219 16.6 18.207L16.129 17.316C16.129 17.316 16.021 17.133 15.881 16.922C15.842 16.868 15.801 16.824 15.77 16.785Z" fill="#276DC3"/>
</svg>
