<svg width="16" height="16" viewBox="0 0 16 16" fill="none" xmlns="http://www.w3.org/2000/svg">
  <g clip-path="url(#clip0_776_1111)">
    <rect width="16" height="16" fill="" />
    <path
      d="M7.71511 0C7.59758 0 7.50858 0.000866666 7.47618 0.00446667C7.44178 0.008 7.33224 0.0184667 7.23378 0.0263333C4.96124 0.2312 2.83264 1.4572 1.48444 3.34153C0.733711 4.38933 0.253577 5.57773 0.0722441 6.83667C0.00811081 7.276 0.000244141 7.4058 0.000244141 8.0016C0.000244141 8.5974 0.00824414 8.7272 0.0722441 9.16667C0.506911 12.1707 2.64498 14.6946 5.54471 15.6297C6.06398 15.7971 6.61138 15.9112 7.23384 15.98C7.47624 16.0067 8.52411 16.0067 8.76651 15.98C9.84098 15.8611 10.7513 15.5953 11.649 15.1371C11.7866 15.0667 11.8132 15.048 11.7945 15.0323C11.782 15.023 11.1954 14.2364 10.4916 13.2856L9.21231 11.5576L7.60918 9.1854C6.72711 7.88113 6.00138 6.81473 5.99511 6.81473C5.98884 6.813 5.98264 7.8672 5.97944 9.15407C5.97498 11.4075 5.97324 11.4982 5.94504 11.5514C5.90438 11.6281 5.87304 11.6593 5.80744 11.6937C5.75744 11.7186 5.71358 11.7233 5.47744 11.7233H5.20678L5.13491 11.678C5.09034 11.6501 5.05414 11.6106 5.03011 11.5639L4.99724 11.4935L5.00078 8.35813L5.00524 5.2212L5.05364 5.1602C5.07871 5.12733 5.13191 5.0852 5.16938 5.06487C5.23351 5.03353 5.25858 5.0304 5.52911 5.0304C5.84824 5.0304 5.90138 5.04287 5.98424 5.13353C6.00778 5.15867 6.87578 6.466 7.91424 8.04073C8.9657 9.63462 10.0178 11.2281 11.0705 12.8211L12.3373 14.7399L12.4013 14.6977C12.9692 14.3287 13.5696 13.8032 14.0451 13.2559C15.057 12.094 15.7093 10.6773 15.9282 9.1666C15.9923 8.7272 16.0001 8.59727 16.0001 8.0016C16.0001 7.4058 15.9921 7.276 15.9282 6.83653C15.4934 3.83253 13.3554 1.3086 10.4558 0.373533C9.94431 0.207733 9.40004 0.0935333 8.79011 0.0247333C8.67744 0.013 8.06778 0.000333333 7.71524 6.66667e-05L7.71511 0ZM10.4274 4.81133C10.659 4.81133 10.6996 4.81487 10.7512 4.84267C10.8264 4.88013 10.8872 4.95213 10.9092 5.02713C10.9216 5.0678 10.9248 5.93733 10.9216 7.89673L10.9172 10.7084L10.4214 9.9484L9.92404 9.1884V7.1444C9.92404 5.82307 9.93024 5.0802 9.93964 5.04427C9.96464 4.95673 10.0194 4.88787 10.0945 4.84727C10.1586 4.81433 10.182 4.81127 10.4276 4.81127L10.4274 4.81133Z"
      fill="black" />
  </g>
  <defs>
    <clipPath id="clip0_776_1111">
      <rect width="16" height="16" fill="white" />
    </clipPath>
  </defs>
</svg>