<svg width="24" height="24" viewBox="0 0 24 24" fill="none" xmlns="http://www.w3.org/2000/svg">
<path d="M12 6.26087H2.6087C2.6087 6.26087 0 6.26087 0 12C0 17.7391 2.6087 17.7391 2.6087 17.7391H5.21739C5.21739 17.7391 5.21739 17.2174 5.21739 15.1304C5.21739 13.0435 6.78261 11.4783 8.86957 11.4783C10.9565 11.4783 13.5583 11.4783 15.127 11.4783C16.6957 11.4783 17.7391 10.4348 17.7607 8.84451C17.7823 7.25425 17.7391 2.6087 17.7391 2.6087C17.7391 2.6087 17.7391 0 12 0C6.26087 0 6.26087 2.6087 6.26087 2.6087V5.21739H12V6.26087Z" fill="#387EB8"/>
<path d="M11.9999 17.7391H21.3912C21.3912 17.7391 23.9999 17.7391 23.9999 12C23.9999 6.26086 21.3912 6.26086 21.3912 6.26086H18.7825C18.7825 6.26086 18.7825 6.7826 18.7825 8.86956C18.7825 10.9565 17.2173 12.5217 15.1303 12.5217C13.0434 12.5217 10.4347 12.5217 8.86944 12.5217C7.30422 12.5217 6.26074 13.5652 6.26074 15.1304C6.26074 16.6956 6.26074 21.3913 6.26074 21.3913C6.26074 21.3913 6.26074 24 11.9999 24C17.739 24 17.739 21.3913 17.739 21.3913V18.7826H11.9999V17.7391Z" fill="#FFC331"/>
<path d="M8.86965 3.65214C9.44595 3.65214 9.91313 3.18496 9.91313 2.60866C9.91313 2.03237 9.44595 1.56519 8.86965 1.56519C8.29335 1.56519 7.82617 2.03237 7.82617 2.60866C7.82617 3.18496 8.29335 3.65214 8.86965 3.65214Z" fill="white"/>
<path d="M15.1304 22.4348C15.7067 22.4348 16.1739 21.9676 16.1739 21.3913C16.1739 20.815 15.7067 20.3478 15.1304 20.3478C14.5541 20.3478 14.0869 20.815 14.0869 21.3913C14.0869 21.9676 14.5541 22.4348 15.1304 22.4348Z" fill="white"/>
</svg>
