<svg width="16" height="16" viewBox="0 0 16 16" fill="none" xmlns="http://www.w3.org/2000/svg">
<path d="M5.00533 0C4.814 0 4.62333 0 4.432 0.00133333C4.27133 0.00266667 4.11 0.00333333 3.94933 0.008C3.86133 0.01 3.774 0.014 3.686 0.018C3.42206 0.0282654 3.15906 0.0556564 2.89867 0.1C2.55163 0.161364 2.21527 0.27251 1.9 0.43C1.26713 0.751934 0.752509 1.26609 0.43 1.89867C0.266667 2.21867 0.163333 2.54667 0.1 2.89867C0.038 3.24533 0.0186667 3.59867 0.00933333 3.94933C0.00501187 4.11019 0.00234506 4.27109 0.00133333 4.432C0 4.62333 0 4.814 0 5.00533V10.9947C0 11.186 0 11.378 0.00133333 11.5693C0.00266667 11.7293 0.00466667 11.89 0.00933333 12.0507C0.0186667 12.4013 0.038 12.7553 0.1 13.1013C0.163333 13.4533 0.266667 13.7813 0.43 14.1013C0.752133 14.7342 1.26685 15.2484 1.9 15.57C2.22 15.7327 2.54667 15.8367 2.89867 15.9C3.24533 15.962 3.59867 15.9827 3.94933 15.992C4.11 15.9967 4.27133 15.998 4.432 15.9987C4.62333 16 4.814 16 5.00533 16H10.9947C11.186 16 11.3767 16 11.568 15.9987C11.7287 15.998 11.89 15.9967 12.0507 15.992C12.4031 15.9878 12.7548 15.9571 13.1027 15.9C13.4501 15.8402 13.7867 15.729 14.1013 15.57C14.7338 15.248 15.248 14.7338 15.57 14.1013C15.7333 13.7813 15.8367 13.4533 15.9 13.1013C15.962 12.7547 15.9827 12.4013 15.992 12.0507C15.9967 11.89 15.998 11.73 15.9987 11.5693C16 11.378 16 11.186 16 10.9947V5.00533C16 4.814 16 4.62333 15.9987 4.432C15.9982 4.27109 15.996 4.11019 15.992 3.94933C15.9878 3.5973 15.957 3.24608 15.9 2.89867C15.8403 2.55079 15.7291 2.21375 15.57 1.89867C15.2479 1.26626 14.7337 0.752124 14.1013 0.43C13.7867 0.270977 13.4501 0.159755 13.1027 0.1C12.7548 0.042871 12.4032 0.0121167 12.0507 0.008C11.8903 0.00412182 11.7298 0.00189948 11.5693 0.00133333C11.378 0 11.186 0 10.9947 0H5.00533ZM9.02867 2.27333C11.7713 3.92 13.392 7.048 12.728 9.694C12.712 9.756 12.6947 9.81467 12.6773 9.87533L12.6787 9.876C14.0533 11.568 13.6787 13.3813 13.5027 13.0393C12.788 11.6487 11.4587 11.994 10.7773 12.344C10.7157 12.3806 10.6533 12.4157 10.59 12.4493L10.5767 12.4573L10.5753 12.4587C9.16533 13.2073 7.27067 13.262 5.36733 12.444C3.81756 11.7724 2.50693 10.6482 1.60733 9.21867C2.04 9.53867 2.50733 9.82 3.00533 10.0533C5.018 10.996 7.03933 10.9273 8.47 10.052C6.434 8.48667 4.734 6.44667 3.43067 4.794C3.18291 4.50494 2.95885 4.19639 2.76067 3.87133C4.32067 5.29933 6.786 7.09133 7.67067 7.58867C5.79333 5.60533 4.13867 3.162 4.216 3.24C7.17333 6.22 9.90133 7.904 9.90133 7.904C10.004 7.96067 10.0813 8.00667 10.1413 8.046C10.198 7.90267 10.248 7.75467 10.2907 7.60067C10.7627 5.87533 10.2307 3.902 9.02867 2.27267V2.27333Z" fill="#F05138"/>
</svg>
