<svg width="16" height="16" viewBox="0 0 16 16" fill="none" xmlns="http://www.w3.org/2000/svg">
<path d="M8 0C12.418 0 16 3.582 16 8C16 12.418 12.418 16 8 16C3.582 16 0 12.418 0 8C0 3.582 3.582 0 8 0ZM6.41 10.6653C6.52667 11.0953 6.514 11.4973 6.394 11.86L6.35067 11.98C6.33467 12.0207 6.316 12.06 6.29867 12.0973C6.20533 12.2907 6.08133 12.4707 5.92867 12.6373C5.46333 13.1433 4.814 13.3353 4.53533 13.174C4.23533 12.9993 4.38467 12.284 4.92467 11.714C5.50533 11.102 6.338 10.708 6.338 10.708V10.706L6.41 10.6653ZM13.0173 3.42467C12.656 2.00267 10.2993 1.53533 8.06933 2.328C6.74333 2.79933 5.30667 3.54 4.274 4.506C3.04533 5.65333 2.85 6.65333 2.93067 7.07133C3.21533 8.54533 5.23533 9.50933 6.066 10.2247V10.2287C5.82133 10.3487 4.02867 11.248 3.60867 12.1787C3.15867 13.1587 3.67867 13.8593 4.01867 13.9487C5.06867 14.2393 6.14867 13.7087 6.72867 12.8493C7.28867 12.0087 7.23933 10.9287 6.998 10.3987C7.32867 10.3087 7.718 10.2687 8.218 10.3293C9.61867 10.4893 9.89867 11.3693 9.838 11.7293C9.778 12.0887 9.48933 12.2987 9.38867 12.3587C9.28867 12.4193 9.25867 12.4387 9.268 12.4793C9.278 12.5393 9.32867 12.5393 9.408 12.5293C9.518 12.5093 10.1387 12.2293 10.1687 11.5487C10.1987 10.6887 9.378 9.72933 7.91867 9.74867C7.31867 9.75933 6.938 9.80933 6.66867 9.91933C6.64867 9.88933 6.628 9.86933 6.59867 9.84933C5.69867 8.87933 4.02867 8.19933 4.09867 6.90933C4.11867 6.43933 4.28867 5.2 7.29867 3.7C9.76867 2.46933 11.7393 2.81 12.0793 3.56C12.568 4.62933 11.0287 6.62 8.45867 6.90933C7.47867 7.01933 6.96867 6.64 6.838 6.49933C6.69867 6.34933 6.67867 6.33933 6.62867 6.37C6.54867 6.41 6.59867 6.54 6.62867 6.62C6.70867 6.82 7.01867 7.17 7.55933 7.35C8.02867 7.5 9.17933 7.58933 10.5593 7.05C12.1087 6.45067 13.3187 4.78 12.9687 3.38L13.0173 3.42467Z" fill="#CC6699"/>
</svg>
