<svg width="24" height="24" viewBox="0 0 24 24" fill="none" xmlns="http://www.w3.org/2000/svg">
<path d="M11.138 17.569C11.138 19.046 10.5513 20.4625 9.50688 21.5069C8.46249 22.5513 7.04599 23.138 5.569 23.138C4.09201 23.138 2.67551 22.5513 1.63112 21.5069C0.586732 20.4625 0 19.046 0 17.569C0 16.092 0.586732 14.6755 1.63112 13.6311C2.67551 12.5867 4.09201 12 5.569 12C7.04599 12 8.46249 12.5867 9.50688 13.6311C10.5513 14.6755 11.138 16.092 11.138 17.569ZM17.569 6.431C17.569 7.90799 16.9823 9.32449 15.9379 10.3689C14.8935 11.4133 13.477 12 12 12C10.523 12 9.10651 11.4133 8.06212 10.3689C7.01773 9.32449 6.431 7.90799 6.431 6.431C6.431 4.95401 7.01773 3.53751 8.06212 2.49312C9.10651 1.44873 10.523 0.862 12 0.862C13.477 0.862 14.8935 1.44873 15.9379 2.49312C16.9823 3.53751 17.569 4.95401 17.569 6.431ZM24 17.569C24 19.046 23.4133 20.4625 22.3689 21.5069C21.3245 22.5513 19.908 23.138 18.431 23.138C16.954 23.138 15.5375 22.5513 14.4931 21.5069C13.4487 20.4625 12.862 19.046 12.862 17.569C12.862 16.092 13.4487 14.6755 14.4931 13.6311C15.5375 12.5867 16.954 12 18.431 12C19.908 12 21.3245 12.5867 22.3689 13.6311C23.4133 14.6755 24 16.092 24 17.569Z" fill="#9558B2"/>
</svg>
