<svg width="16" height="12" viewBox="0 0 16 12" fill="none" xmlns="http://www.w3.org/2000/svg">
<path d="M10.9367 1.66734C10.86 1.66734 10.808 1.67667 10.754 1.68934V1.698H10.7633C10.7993 1.76734 10.8607 1.818 10.906 1.88C10.942 1.95134 10.9727 2.02267 11.0087 2.09334L11.018 2.08334C11.0807 2.03934 11.1113 1.96867 11.1113 1.86134C11.0847 1.83 11.0807 1.79867 11.058 1.768C11.0313 1.72334 10.974 1.70134 10.938 1.666L10.9367 1.66734ZM3.84667 10.4633H3.22867C3.21129 9.48119 3.15123 8.50027 3.04867 7.52334H3.04333L2.10333 10.4633H1.63333L0.7 7.52334H0.693333C0.620329 8.5018 0.576976 9.48225 0.563333 10.4633H0C0.0366667 9.15267 0.128 7.92334 0.273333 6.77667H1.04L1.93 9.486H1.93533L2.83333 6.77667H3.56333C3.72467 8.12 3.81933 9.35 3.84867 10.4633H3.84667ZM6.52467 7.74334C6.27267 9.10667 5.94067 10.0987 5.53 10.7167C5.20867 11.194 4.85667 11.432 4.47467 11.432C4.37267 11.432 4.248 11.4013 4.09733 11.34V11.0107C4.17067 11.022 4.25733 11.028 4.35467 11.028C4.53333 11.028 4.67667 10.978 4.786 10.88C4.91733 10.76 4.98267 10.6253 4.98267 10.4767C4.98267 10.3733 4.93133 10.1633 4.82933 9.84734L4.15333 7.74334H4.76L5.24467 9.31667C5.354 9.674 5.4 9.92334 5.38133 10.0653C5.648 9.356 5.83333 8.58067 5.938 7.74334H6.52467ZM14.7413 10.4633H12.988V6.77667H13.578V10.01H14.7413V10.4633ZM12.528 10.5533L11.8507 10.22C11.9107 10.1693 11.9687 10.1147 12.0207 10.0533C12.3093 9.716 12.4527 9.21467 12.4527 8.55134C12.4527 7.33134 11.974 6.72067 11.016 6.72067C10.5467 6.72067 10.18 6.87534 9.916 7.18534C9.62933 7.524 9.48533 8.02267 9.48533 8.682C9.48533 9.33 9.612 9.806 9.868 10.1087C10.1013 10.382 10.4527 10.5187 10.9233 10.5187C11.0993 10.5187 11.2607 10.4967 11.4067 10.4533L12.29 10.968L12.53 10.5533H12.528ZM10.3333 9.72534C10.1833 9.48534 10.1087 9.09867 10.1087 8.568C10.1087 7.63934 10.3913 7.17467 10.9553 7.17467C11.2507 7.17467 11.4687 7.286 11.6067 7.508C11.756 7.74934 11.8307 8.132 11.8307 8.65667C11.8307 9.59267 11.548 10.062 10.984 10.062C10.6873 10.062 10.4707 9.95067 10.332 9.72867L10.3333 9.72534ZM9.228 9.442C9.228 9.75534 9.11333 10.0127 8.884 10.2127C8.65467 10.4127 8.34867 10.5127 7.96133 10.5127C7.59933 10.5127 7.252 10.398 6.91267 10.1693L7.07067 9.852C7.36267 9.99867 7.626 10.0707 7.864 10.0707C8.08533 10.0707 8.25933 10.022 8.386 9.924C8.44931 9.87628 8.50043 9.81425 8.53519 9.743C8.56995 9.67174 8.58736 9.59327 8.586 9.514C8.586 9.294 8.43267 9.10734 8.154 8.95067C7.89533 8.80867 7.37867 8.51267 7.37867 8.51267C7.09733 8.308 6.95733 8.08867 6.95733 7.728C6.95733 7.428 7.062 7.188 7.27067 7.00467C7.48067 6.81934 7.75067 6.728 8.084 6.728C8.42533 6.728 8.73733 6.81867 9.01733 7.00134L8.87533 7.31867C8.6516 7.22039 8.41035 7.16824 8.166 7.16534C7.97733 7.16534 7.83133 7.21067 7.73 7.30267C7.67858 7.34527 7.63712 7.39863 7.60856 7.45898C7.57999 7.51934 7.56501 7.58523 7.56467 7.652C7.56467 7.87067 7.72067 8.05867 8.00867 8.21867C8.27067 8.362 8.8 8.66534 8.8 8.66534C9.08867 8.86867 9.232 9.08534 9.232 9.444L9.228 9.442ZM15.4827 5.54067C15.126 5.53134 14.8493 5.56734 14.618 5.666C14.5513 5.69267 14.4447 5.69267 14.4353 5.77734C14.472 5.81267 14.4773 5.87067 14.5087 5.92C14.562 6.00934 14.654 6.12867 14.7393 6.19134C14.8327 6.26467 14.926 6.33534 15.024 6.398C15.1973 6.50467 15.394 6.568 15.564 6.67534C15.6607 6.738 15.7593 6.81734 15.8573 6.884C15.906 6.91734 15.9373 6.97734 16 6.99867V6.98534C15.9693 6.94534 15.96 6.88734 15.93 6.84267C15.8853 6.798 15.8407 6.758 15.7967 6.714C15.6658 6.54152 15.5096 6.3898 15.3333 6.264C15.1907 6.16667 14.8787 6.03067 14.82 5.86734L14.8113 5.858C14.9087 5.84934 15.0247 5.814 15.118 5.78734C15.2693 5.74734 15.408 5.756 15.5647 5.71667C15.6353 5.69867 15.7067 5.67667 15.778 5.654V5.614C15.698 5.534 15.638 5.42534 15.5553 5.35067C15.3246 5.14898 15.0785 4.96554 14.8193 4.802C14.6793 4.71267 14.502 4.65534 14.3547 4.57934C14.3013 4.55267 14.212 4.53934 14.1813 4.49467C14.1013 4.39734 14.0547 4.268 13.998 4.152C13.8671 3.89806 13.7455 3.63945 13.6333 3.37667C13.5533 3.202 13.5047 3.028 13.4067 2.868C12.9467 2.11 12.4487 1.65067 11.6827 1.20134C11.518 1.108 11.3207 1.068 11.112 1.01867C11.0007 1.01334 10.8893 1.00534 10.7787 1.00067C10.7053 0.969337 10.6347 0.884671 10.572 0.844004C10.3187 0.684004 9.66267 0.337337 9.476 0.796004C9.356 1.08534 9.654 1.37067 9.75733 1.51734C9.834 1.61934 9.93067 1.736 9.984 1.85067C10.0153 1.928 10.024 2.00734 10.0553 2.088C10.126 2.284 10.1933 2.50267 10.2867 2.686C10.3353 2.77934 10.3887 2.87734 10.4513 2.96134C10.4873 3.01 10.5487 3.03267 10.5627 3.11267C10.5 3.20334 10.496 3.33534 10.46 3.446C10.3 3.95067 10.3627 4.57467 10.5893 4.946C10.6607 5.05667 10.8307 5.302 11.058 5.208C11.258 5.128 11.214 4.87467 11.2713 4.65134C11.2847 4.598 11.276 4.56267 11.3033 4.52667V4.53667C11.366 4.662 11.4287 4.78134 11.486 4.90667C11.6233 5.12534 11.8633 5.352 12.064 5.50334C12.1707 5.58334 12.2553 5.722 12.3887 5.77134V5.758H12.3787C12.35 5.71934 12.312 5.70067 12.276 5.66934C12.1915 5.58659 12.1135 5.49744 12.0427 5.40267C11.8548 5.14602 11.6883 4.87445 11.5447 4.59067C11.4713 4.45067 11.41 4.3 11.3513 4.162C11.3247 4.10867 11.3247 4.02867 11.28 4.002C11.2133 4.09934 11.1153 4.184 11.0667 4.304C10.982 4.496 10.9733 4.732 10.9413 4.97734C10.9233 4.982 10.932 4.97734 10.9233 4.98667C10.7807 4.952 10.732 4.804 10.6787 4.68C10.5453 4.36334 10.5233 3.85467 10.6387 3.49C10.67 3.39667 10.8033 3.102 10.75 3.01267C10.722 2.928 10.634 2.87934 10.5853 2.81067C10.5227 2.7213 10.4691 2.62594 10.4253 2.526C10.3187 2.27667 10.2653 2.00067 10.1493 1.75134C10.096 1.636 10.0027 1.51534 9.92667 1.40934C9.842 1.28934 9.74867 1.20467 9.68133 1.06267C9.65933 1.014 9.628 0.933338 9.66333 0.880004C9.67267 0.844004 9.69133 0.830004 9.726 0.820004C9.78467 0.772004 9.94933 0.834671 10.0073 0.861337C10.172 0.928004 10.3107 0.990671 10.4487 1.084C10.5113 1.128 10.5787 1.21267 10.6587 1.23467H10.752C10.8947 1.266 11.0553 1.244 11.1887 1.28334C11.4253 1.35934 11.6387 1.47 11.83 1.59C12.4196 1.96661 12.8991 2.49237 13.22 3.114C13.2733 3.21667 13.2967 3.31067 13.3453 3.41734C13.4387 3.63734 13.554 3.85934 13.6487 4.072C13.742 4.282 13.832 4.496 13.966 4.67C14.0327 4.76334 14.3007 4.812 14.4207 4.86067C14.5093 4.90067 14.6473 4.93734 14.7273 4.986C14.8807 5.07934 15.03 5.186 15.174 5.28867C15.2473 5.33934 15.4693 5.45067 15.4827 5.54067Z" fill="#4479A1"/>
</svg>
